ISO-10303-21;
HEADER;
FILE_DESCRIPTION (( 'STEP AP214' ),
    '1' );
FILE_NAME ('Втулка.STEP',
    '2026-08-17T03:34:38',
    ( 'Пользователь Windows' ),
    ( '' ),
    'SwSTEP 2.0',
    'SolidWorks 2023',
    '' );
FILE_SCHEMA (( 'AUTOMOTIVE_DESIGN' ));
ENDSEC;

DATA;
#1 = CARTESIAN_POINT ( 'NONE',  ( -49.31753904153077173, 3.600000000000000089, -28.92512513604665614 ) ) ;
#2 = ORIENTED_EDGE ( 'NONE', *, *, #89, .T. ) ;
#3 = CIRCLE ( 'NONE', #177, 0.4000000000000010214 ) ;
#4 = DIRECTION ( 'NONE',  ( 0.000000000000000000, 0.000000000000000000, 1.000000000000000000 ) ) ;
#5 = ORIENTED_EDGE ( 'NONE', *, *, #159, .F. ) ;
#6 = CARTESIAN_POINT ( 'NONE',  ( -49.31753904153077173, 3.600000000000000089, -26.87512513604665187 ) ) ;
#7 = DIRECTION ( 'NONE',  ( 0.000000000000000000, 0.000000000000000000, 1.000000000000000000 ) ) ;
#8 = AXIS2_PLACEMENT_3D ( 'NONE', #57, #282, #90 ) ;
#9 = AXIS2_PLACEMENT_3D ( 'NONE', #124, #194, #103 ) ;
#10 =( NAMED_UNIT ( * ) PLANE_ANGLE_UNIT ( ) SI_UNIT ( $, .RADIAN. ) );
#11 = ORIENTED_EDGE ( 'NONE', *, *, #407, .F. ) ;
#12 = EDGE_CURVE ( 'NONE', #391, #108, #361, .T. ) ;
#13 =( LENGTH_UNIT ( ) NAMED_UNIT ( * ) SI_UNIT ( .MILLI., .METRE. ) );
#14 = ORIENTED_EDGE ( 'NONE', *, *, #209, .F. ) ;
#15 = CARTESIAN_POINT ( 'NONE',  ( -49.31753904153077173, -4.000000000000000000, -28.92512513604665614 ) ) ;
#16 = ORIENTED_EDGE ( 'NONE', *, *, #32, .T. ) ;
#17 = AXIS2_PLACEMENT_3D ( 'NONE', #121, #250, #56 ) ;
#18 = AXIS2_PLACEMENT_3D ( 'NONE', #135, #384, #330 ) ;
#19 = CARTESIAN_POINT ( 'NONE',  ( -49.31753904153077173, 3.600000000000000089, -30.47512513604665330 ) ) ;
#20 = ORIENTED_EDGE ( 'NONE', *, *, #122, .F. ) ;
#21 = DIRECTION ( 'NONE',  ( -0.000000000000000000, -1.000000000000000000, -0.000000000000000000 ) ) ;
#22 = ORIENTED_EDGE ( 'NONE', *, *, #401, .F. ) ;
#23 = ORIENTED_EDGE ( 'NONE', *, *, #97, .T. ) ;
#24 = CARTESIAN_POINT ( 'NONE',  ( 0.000000000000000000, 0.000000000000000000, 0.000000000000000000 ) ) ;
#25 = CARTESIAN_POINT ( 'NONE',  ( -49.31753904153077173, 3.600000000000000089, -26.87512513604665187 ) ) ;
#26 = DIRECTION ( 'NONE',  ( 0.000000000000000000, 0.000000000000000000, 1.000000000000000000 ) ) ;
#27 = CARTESIAN_POINT ( 'NONE',  ( -49.31753904153077173, -4.000000000000000000, -23.67512513604665259 ) ) ;
#28 = CARTESIAN_POINT ( 'NONE',  ( -49.31753904153077173, -4.000000000000000000, -26.87512513604665187 ) ) ;
#29 = EDGE_CURVE ( 'NONE', #204, #206, #154, .T. ) ;
#30 = AXIS2_PLACEMENT_3D ( 'NONE', #358, #142, #50 ) ;
#31 = DIRECTION ( 'NONE',  ( 0.000000000000000000, 1.000000000000000000, 0.000000000000000000 ) ) ;
#32 = EDGE_CURVE ( 'NONE', #355, #318, #312, .T. ) ;
#33 = CARTESIAN_POINT ( 'NONE',  ( -49.31753904153077173, 4.000000000000000000, -28.52512513604665401 ) ) ;
#34 = CARTESIAN_POINT ( 'NONE',  ( -49.31753904153077173, -4.000000000000000000, -24.82512513604665116 ) ) ;
#35 = EDGE_LOOP ( 'NONE', ( #64, #357, #243, #110 ) ) ;
#36 = AXIS2_PLACEMENT_3D ( 'NONE', #235, #21, #76 ) ;
#37 = EDGE_CURVE ( 'NONE', #106, #229, #117, .T. ) ;
#38 = CARTESIAN_POINT ( 'NONE',  ( -49.31753904153077173, 4.000000000000000000, -26.87512513604665187 ) ) ;
#39 = ORIENTED_EDGE ( 'NONE', *, *, #392, .F. ) ;
#40 = DIRECTION ( 'NONE',  ( 1.000000000000000000, -0.000000000000000000, 1.224646799147353207E-16 ) ) ;
#41 = CARTESIAN_POINT ( 'NONE',  ( -49.31753904153077173, -3.600000000000000089, -23.27512513604665401 ) ) ;
#42 = CIRCLE ( 'NONE', #18, 0.4000000000000010214 ) ;
#43 = FILL_AREA_STYLE ('',( #72 ) ) ;
#44 = DIRECTION ( 'NONE',  ( 0.000000000000000000, 0.000000000000000000, 1.000000000000000000 ) ) ;
#45 = ORIENTED_EDGE ( 'NONE', *, *, #246, .F. ) ;
#46 = EDGE_CURVE ( 'NONE', #318, #355, #215, .T. ) ;
#47 = FACE_OUTER_BOUND ( 'NONE', #48, .T. ) ;
#48 = EDGE_LOOP ( 'NONE', ( #95, #22, #269, #234 ) ) ;
#49 = AXIS2_PLACEMENT_3D ( 'NONE', #383, #259, #7 ) ;
#50 = DIRECTION ( 'NONE',  ( 0.000000000000000000, 0.000000000000000000, 1.000000000000000000 ) ) ;
#51 = ORIENTED_EDGE ( 'NONE', *, *, #279, .T. ) ;
#52 = FACE_OUTER_BOUND ( 'NONE', #77, .T. ) ;
#53 = DIRECTION ( 'NONE',  ( 0.000000000000000000, 1.000000000000000000, 0.000000000000000000 ) ) ;
#54 = CARTESIAN_POINT ( 'NONE',  ( -49.31753904153077173, -3.600000000000000089, -23.67512513604665259 ) ) ;
#55 = CIRCLE ( 'NONE', #82, 3.599999999999999201 ) ;
#56 = DIRECTION ( 'NONE',  ( 0.000000000000000000, 0.000000000000000000, 1.000000000000000000 ) ) ;
#57 = CARTESIAN_POINT ( 'NONE',  ( -49.31753904153077173, 3.600000000000000089, -30.07512513604665472 ) ) ;
#58 = EDGE_CURVE ( 'NONE', #106, #305, #196, .T. ) ;
#59 = FACE_OUTER_BOUND ( 'NONE', #35, .T. ) ;
#60 = AXIS2_PLACEMENT_3D ( 'NONE', #153, #344, #370 ) ;
#61 = DIRECTION ( 'NONE',  ( 0.000000000000000000, 1.000000000000000000, 0.000000000000000000 ) ) ;
#62 = DIRECTION ( 'NONE',  ( -0.000000000000000000, -1.000000000000000000, -0.000000000000000000 ) ) ;
#63 = FACE_OUTER_BOUND ( 'NONE', #263, .T. ) ;
#64 = ORIENTED_EDGE ( 'NONE', *, *, #134, .F. ) ;
#65 = EDGE_CURVE ( 'NONE', #229, #273, #226, .T. ) ;
#66 = TOROIDAL_SURFACE ( 'NONE', #345, 3.200000000000000622, 0.4000000000000000222 ) ;
#67 = CARTESIAN_POINT ( 'NONE',  ( -49.31753904153077173, -3.600000000000000089, -26.87512513604665187 ) ) ;
#68 = DIRECTION ( 'NONE',  ( -0.000000000000000000, -1.000000000000000000, -0.000000000000000000 ) ) ;
#69 = EDGE_LOOP ( 'NONE', ( #380, #70, #331, #334 ) ) ;
#70 = ORIENTED_EDGE ( 'NONE', *, *, #157, .F. ) ;
#71 = CIRCLE ( 'NONE', #141, 0.4000000000000010214 ) ;
#72 = FILL_AREA_STYLE_COLOUR ( '', #185 ) ;
#73 = EDGE_LOOP ( 'NONE', ( #231, #195, #272, #5 ) ) ;
#74 = EDGE_CURVE ( 'NONE', #273, #359, #395, .T. ) ;
#75 = UNCERTAINTY_MEASURE_WITH_UNIT (LENGTH_MEASURE( 1.000000000000000082E-05 ), #13, 'distance_accuracy_value', 'NONE');
#76 = DIRECTION ( 'NONE',  ( 0.000000000000000000, 0.000000000000000000, -1.000000000000000000 ) ) ;
#77 = EDGE_LOOP ( 'NONE', ( #315, #265, #51, #393 ) ) ;
#78 = APPLICATION_CONTEXT ( 'automotive_design' ) ;
#79 =( LENGTH_UNIT ( ) NAMED_UNIT ( * ) SI_UNIT ( .MILLI., .METRE. ) );
#80 = ORIENTED_EDGE ( 'NONE', *, *, #401, .T. ) ;
#81 = AXIS2_PLACEMENT_3D ( 'NONE', #405, #61, #364 ) ;
#82 = AXIS2_PLACEMENT_3D ( 'NONE', #6, #166, #351 ) ;
#83 = ORIENTED_EDGE ( 'NONE', *, *, #267, .T. ) ;
#84 = ADVANCED_FACE ( 'NONE', ( #311 ), #248, .T. ) ;
#85 = DIRECTION ( 'NONE',  ( 0.000000000000000000, 0.000000000000000000, 1.000000000000000000 ) ) ;
#86 = CARTESIAN_POINT ( 'NONE',  ( -49.31753904153077173, -3.600000000000000089, -24.82512513604665116 ) ) ;
#87 = TOROIDAL_SURFACE ( 'NONE', #382, 2.050000000000002931, 0.4000000000000000222 ) ;
#88 = DIRECTION ( 'NONE',  ( 0.000000000000000000, 0.000000000000000000, 1.000000000000000000 ) ) ;
#89 = EDGE_CURVE ( 'NONE', #320, #180, #300, .T. ) ;
#90 = DIRECTION ( 'NONE',  ( 0.000000000000000000, 0.000000000000000000, -1.000000000000000000 ) ) ;
#91 = DIRECTION ( 'NONE',  ( 0.000000000000000000, 0.000000000000000000, 1.000000000000000000 ) ) ;
#92 = DIRECTION ( 'NONE',  ( 0.000000000000000000, 1.000000000000000000, 0.000000000000000000 ) ) ;
#93 = AXIS2_PLACEMENT_3D ( 'NONE', #262, #92, #127 ) ;
#94 = FACE_OUTER_BOUND ( 'NONE', #69, .T. ) ;
#95 = ORIENTED_EDGE ( 'NONE', *, *, #326, .F. ) ;
#96 = DIRECTION ( 'NONE',  ( 0.000000000000000000, 0.000000000000000000, 1.000000000000000000 ) ) ;
#97 = EDGE_CURVE ( 'NONE', #140, #318, #119, .T. ) ;
#98 = FACE_OUTER_BOUND ( 'NONE', #288, .T. ) ;
#99 = AXIS2_PLACEMENT_3D ( 'NONE', #184, #313, #150 ) ;
#100 = ORIENTED_EDGE ( 'NONE', *, *, #89, .F. ) ;
#101 = AXIS2_PLACEMENT_3D ( 'NONE', #352, #68, #201 ) ;
#102 = ADVANCED_FACE ( 'NONE', ( #192 ), #343, .T. ) ;
#103 = DIRECTION ( 'NONE',  ( 0.000000000000000000, 0.000000000000000000, 1.000000000000000000 ) ) ;
#104 = EDGE_LOOP ( 'NONE', ( #39, #83, #224, #129 ) ) ;
#105 = CYLINDRICAL_SURFACE ( 'NONE', #36, 3.599999999999999201 ) ;
#106 = VERTEX_POINT ( 'NONE', #189 ) ;
#107 =( NAMED_UNIT ( * ) SI_UNIT ( $, .STERADIAN. ) SOLID_ANGLE_UNIT ( ) );
#108 = VERTEX_POINT ( 'NONE', #27 ) ;
#109 = STYLED_ITEM ( 'NONE', ( #264 ), #324 ) ;
#110 = ORIENTED_EDGE ( 'NONE', *, *, #97, .F. ) ;
#111 = ORIENTED_EDGE ( 'NONE', *, *, #246, .T. ) ;
#112 = SURFACE_STYLE_USAGE ( .BOTH. , #298 ) ;
#113 = CARTESIAN_POINT ( 'NONE',  ( -49.31753904153077173, -4.000000000000000000, -26.87512513604665187 ) ) ;
#114 = AXIS2_PLACEMENT_3D ( 'NONE', #151, #31, #283 ) ;
#115 = TOROIDAL_SURFACE ( 'NONE', #9, 2.050000000000002931, 0.4000000000000000222 ) ;
#116 = ORIENTED_EDGE ( 'NONE', *, *, #310, .T. ) ;
#117 = LINE ( 'NONE', #156, #386 ) ;
#118 = DIRECTION ( 'NONE',  ( 0.000000000000000000, 1.000000000000000000, 0.000000000000000000 ) ) ;
#119 = CIRCLE ( 'NONE', #280, 0.4000000000000010214 ) ;
#120 = AXIS2_PLACEMENT_3D ( 'NONE', #253, #193, #373 ) ;
#121 = CARTESIAN_POINT ( 'NONE',  ( -49.31753904153077173, 3.600000000000000089, -26.87512513604665187 ) ) ;
#122 = EDGE_CURVE ( 'NONE', #353, #355, #190, .T. ) ;
#123 = FACE_BOUND ( 'NONE', #207, .T. ) ;
#124 = CARTESIAN_POINT ( 'NONE',  ( -49.31753904153077173, -3.600000000000000089, -26.87512513604665187 ) ) ;
#125 = ADVANCED_FACE ( 'NONE', ( #155, #213 ), #309, .T. ) ;
#126 = CIRCLE ( 'NONE', #49, 2.050000000000003375 ) ;
#127 = DIRECTION ( 'NONE',  ( 0.000000000000000000, 0.000000000000000000, 1.000000000000000000 ) ) ;
#128 = CYLINDRICAL_SURFACE ( 'NONE', #101, 1.650000000000002132 ) ;
#129 = ORIENTED_EDGE ( 'NONE', *, *, #29, .T. ) ;
#130 = CARTESIAN_POINT ( 'NONE',  ( -49.31753904153077173, 3.600000000000000089, -28.52512513604665401 ) ) ;
#131 = CARTESIAN_POINT ( 'NONE',  ( -49.31753904153077173, -3.600000000000000089, -30.07512513604665472 ) ) ;
#132 = ORIENTED_EDGE ( 'NONE', *, *, #58, .T. ) ;
#133 = VECTOR ( 'NONE', #171, 1000.000000000000000 ) ;
#134 = EDGE_CURVE ( 'NONE', #353, #140, #221, .T. ) ;
#135 = CARTESIAN_POINT ( 'NONE',  ( -49.31753904153077173, -3.600000000000000089, -28.92512513604665614 ) ) ;
#136 = ORIENTED_EDGE ( 'NONE', *, *, #157, .T. ) ;
#137 = UNCERTAINTY_MEASURE_WITH_UNIT (LENGTH_MEASURE( 1.000000000000000082E-05 ), #79, 'distance_accuracy_value', 'NONE');
#138 = ADVANCED_FACE ( 'NONE', ( #59 ), #148, .T. ) ;
#139 = LINE ( 'NONE', #362, #161 ) ;
#140 = VERTEX_POINT ( 'NONE', #342 ) ;
#141 = AXIS2_PLACEMENT_3D ( 'NONE', #314, #319, #164 ) ;
#142 = DIRECTION ( 'NONE',  ( -0.000000000000000000, -1.000000000000000000, -0.000000000000000000 ) ) ;
#143 = ORIENTED_EDGE ( 'NONE', *, *, #74, .T. ) ;
#144 = DIRECTION ( 'NONE',  ( 0.000000000000000000, 0.000000000000000000, 1.000000000000000000 ) ) ;
#145 = ORIENTED_EDGE ( 'NONE', *, *, #65, .F. ) ;
#146 = DIRECTION ( 'NONE',  ( 0.000000000000000000, 0.000000000000000000, 1.000000000000000000 ) ) ;
#147 = ORIENTED_EDGE ( 'NONE', *, *, #37, .T. ) ;
#148 = TOROIDAL_SURFACE ( 'NONE', #114, 3.200000000000000622, 0.4000000000000000222 ) ;
#149 = AXIS2_PLACEMENT_3D ( 'NONE', #252, #338, #403 ) ;
#150 = DIRECTION ( 'NONE',  ( 0.000000000000000000, 0.000000000000000000, -1.000000000000000000 ) ) ;
#151 = CARTESIAN_POINT ( 'NONE',  ( -49.31753904153077173, 3.600000000000000089, -26.87512513604665187 ) ) ;
#152 = ADVANCED_FACE ( 'NONE', ( #123, #406 ), #244, .F. ) ;
#153 = CARTESIAN_POINT ( 'NONE',  ( -49.31753904153077173, 4.000000000000000000, -26.87512513604665187 ) ) ;
#154 = CIRCLE ( 'NONE', #367, 3.599999999999999201 ) ;
#155 = FACE_OUTER_BOUND ( 'NONE', #239, .T. ) ;
#156 = CARTESIAN_POINT ( 'NONE',  ( -49.31753904153077173, 4.000000000000000000, -25.22512513604664974 ) ) ;
#157 = EDGE_CURVE ( 'NONE', #108, #391, #286, .T. ) ;
#158 = CARTESIAN_POINT ( 'NONE',  ( -49.31753904153077173, 3.600000000000000089, -26.87512513604665187 ) ) ;
#159 = EDGE_CURVE ( 'NONE', #108, #206, #3, .T. ) ;
#160 = CLOSED_SHELL ( 'NONE', ( #255, #138, #174, #274, #232, #398, #125, #152, #102, #203, #347, #308, #84, #297 ) ) ;
#161 = VECTOR ( 'NONE', #238, 1000.000000000000000 ) ;
#162 = CARTESIAN_POINT ( 'NONE',  ( -49.31753904153077173, 4.000000000000000000, -23.67512513604665259 ) ) ;
#163 = ORIENTED_EDGE ( 'NONE', *, *, #394, .T. ) ;
#164 = DIRECTION ( 'NONE',  ( 0.000000000000000000, 0.000000000000000000, 1.000000000000000000 ) ) ;
#165 = APPLICATION_CONTEXT ( 'automotive_design' ) ;
#166 = DIRECTION ( 'NONE',  ( -0.000000000000000000, -1.000000000000000000, -0.000000000000000000 ) ) ;
#167 = FACE_OUTER_BOUND ( 'NONE', #296, .T. ) ;
#168 = AXIS2_PLACEMENT_3D ( 'NONE', #86, #368, #214 ) ;
#169 = ORIENTED_EDGE ( 'NONE', *, *, #74, .F. ) ;
#170 = TOROIDAL_SURFACE ( 'NONE', #120, 2.050000000000002931, 0.4000000000000000222 ) ;
#171 = DIRECTION ( 'NONE',  ( -0.000000000000000000, -1.000000000000000000, -0.000000000000000000 ) ) ;
#172 = ORIENTED_EDGE ( 'NONE', *, *, #267, .F. ) ;
#173 = DIRECTION ( 'NONE',  ( 0.000000000000000000, 0.000000000000000000, 1.000000000000000000 ) ) ;
#174 = ADVANCED_FACE ( 'NONE', ( #399 ), #205, .T. ) ;
#175 = LINE ( 'NONE', #303, #133 ) ;
#176 = ORIENTED_EDGE ( 'NONE', *, *, #394, .F. ) ;
#177 = AXIS2_PLACEMENT_3D ( 'NONE', #54, #306, #275 ) ;
#178 = CARTESIAN_POINT ( 'NONE',  ( -49.31753904153077173, -4.000000000000000000, -30.07512513604665472 ) ) ;
#179 = EDGE_CURVE ( 'NONE', #320, #106, #71, .T. ) ;
#180 = VERTEX_POINT ( 'NONE', #223 ) ;
#181 = DIRECTION ( 'NONE',  ( 0.000000000000000000, 1.000000000000000000, 0.000000000000000000 ) ) ;
#182 = PRODUCT_DEFINITION ( 'UNKNOWN', '', #186, #356 ) ;
#183 = ORIENTED_EDGE ( 'NONE', *, *, #372, .F. ) ;
#184 = CARTESIAN_POINT ( 'NONE',  ( -49.31753904153077173, 4.000000000000000000, -26.87512513604665187 ) ) ;
#185 = COLOUR_RGB ( '',0.7921568627450980005, 0.8196078431372548767, 0.9333333333333333481 ) ;
#186 = PRODUCT_DEFINITION_FORMATION_WITH_SPECIFIED_SOURCE ( 'ANY', '', #400, .NOT_KNOWN. ) ;
#187 = CARTESIAN_POINT ( 'NONE',  ( -49.31753904153077173, 4.000000000000000000, -26.87512513604665187 ) ) ;
#188 = DIRECTION ( 'NONE',  ( -0.000000000000000000, -1.000000000000000000, -0.000000000000000000 ) ) ;
#189 = CARTESIAN_POINT ( 'NONE',  ( -49.31753904153077173, 3.600000000000000089, -25.22512513604664974 ) ) ;
#190 = CIRCLE ( 'NONE', #8, 0.4000000000000010214 ) ;
#191 =( GEOMETRIC_REPRESENTATION_CONTEXT ( 3 ) GLOBAL_UNCERTAINTY_ASSIGNED_CONTEXT ( ( #137 ) ) GLOBAL_UNIT_ASSIGNED_CONTEXT ( ( #79, #10, #354 ) ) REPRESENTATION_CONTEXT ( 'NONE', 'WORKASPACE' ) );
#192 = FACE_OUTER_BOUND ( 'NONE', #104, .T. ) ;
#193 = DIRECTION ( 'NONE',  ( 0.000000000000000000, 1.000000000000000000, 0.000000000000000000 ) ) ;
#194 = DIRECTION ( 'NONE',  ( 0.000000000000000000, 1.000000000000000000, 0.000000000000000000 ) ) ;
#195 = ORIENTED_EDGE ( 'NONE', *, *, #251, .T. ) ;
#196 = CIRCLE ( 'NONE', #17, 1.650000000000002132 ) ;
#197 = CIRCLE ( 'NONE', #216, 1.650000000000002132 ) ;
#198 = FACE_OUTER_BOUND ( 'NONE', #377, .T. ) ;
#199 = CYLINDRICAL_SURFACE ( 'NONE', #350, 1.650000000000002132 ) ;
#200 = VERTEX_POINT ( 'NONE', #316 ) ;
#201 = DIRECTION ( 'NONE',  ( 0.000000000000000000, 0.000000000000000000, -1.000000000000000000 ) ) ;
#202 = ORIENTED_EDGE ( 'NONE', *, *, #407, .T. ) ;
#203 = ADVANCED_FACE ( 'NONE', ( #63 ), #199, .F. ) ;
#204 = VERTEX_POINT ( 'NONE', #379 ) ;
#205 = TOROIDAL_SURFACE ( 'NONE', #236, 3.200000000000000622, 0.4000000000000000222 ) ;
#206 = VERTEX_POINT ( 'NONE', #41 ) ;
#207 = EDGE_LOOP ( 'NONE', ( #143, #116 ) ) ;
#208 = CIRCLE ( 'NONE', #30, 1.650000000000002132 ) ;
#209 = EDGE_CURVE ( 'NONE', #180, #305, #227, .T. ) ;
#210 = DIRECTION ( 'NONE',  ( 0.000000000000000000, 1.000000000000000000, 0.000000000000000000 ) ) ;
#211 = ORIENTED_EDGE ( 'NONE', *, *, #37, .F. ) ;
#212 = PRODUCT_CONTEXT ( 'NONE', #165, 'mechanical' ) ;
#213 = FACE_BOUND ( 'NONE', #257, .T. ) ;
#214 = DIRECTION ( 'NONE',  ( 0.000000000000000000, 0.000000000000000000, 1.000000000000000000 ) ) ;
#215 = CIRCLE ( 'NONE', #381, 3.200000000000001510 ) ;
#216 = AXIS2_PLACEMENT_3D ( 'NONE', #390, #270, #144 ) ;
#217 = APPLICATION_PROTOCOL_DEFINITION ( 'draft international standard', 'automotive_design', 1998, #78 ) ;
#218 = DIRECTION ( 'NONE',  ( -0.000000000000000000, -1.000000000000000000, -0.000000000000000000 ) ) ;
#219 = DIRECTION ( 'NONE',  ( -1.000000000000000000, 0.000000000000000000, 0.000000000000000000 ) ) ;
#220 = DIRECTION ( 'NONE',  ( 0.000000000000000000, 0.000000000000000000, 1.000000000000000000 ) ) ;
#221 = CIRCLE ( 'NONE', #292, 3.599999999999999201 ) ;
#222 = AXIS2_PLACEMENT_3D ( 'NONE', #131, #40, #228 ) ;
#223 = CARTESIAN_POINT ( 'NONE',  ( -49.31753904153077173, 4.000000000000000000, -28.92512513604665614 ) ) ;
#224 = ORIENTED_EDGE ( 'NONE', *, *, #378, .T. ) ;
#225 = LINE ( 'NONE', #33, #307 ) ;
#226 = CIRCLE ( 'NONE', #168, 0.4000000000000010214 ) ;
#227 = CIRCLE ( 'NONE', #396, 0.4000000000000010214 ) ;
#228 = DIRECTION ( 'NONE',  ( 0.000000000000000000, 0.000000000000000000, -1.000000000000000000 ) ) ;
#229 = VERTEX_POINT ( 'NONE', #346 ) ;
#230 = CARTESIAN_POINT ( 'NONE',  ( -49.31753904153077173, 4.000000000000000000, -24.82512513604665116 ) ) ;
#231 = ORIENTED_EDGE ( 'NONE', *, *, #12, .F. ) ;
#232 = ADVANCED_FACE ( 'NONE', ( #98 ), #128, .F. ) ;
#233 = DIRECTION ( 'NONE',  ( 0.000000000000000000, 0.000000000000000000, 1.000000000000000000 ) ) ;
#234 = ORIENTED_EDGE ( 'NONE', *, *, #310, .F. ) ;
#235 = CARTESIAN_POINT ( 'NONE',  ( -49.31753904153077173, 4.000000000000000000, -26.87512513604665187 ) ) ;
#236 = AXIS2_PLACEMENT_3D ( 'NONE', #284, #317, #96 ) ;
#237 = EDGE_LOOP ( 'NONE', ( #183, #304, #169, #145 ) ) ;
#238 = DIRECTION ( 'NONE',  ( -0.000000000000000000, -1.000000000000000000, -0.000000000000000000 ) ) ;
#239 = EDGE_LOOP ( 'NONE', ( #271, #16 ) ) ;
#240 = CARTESIAN_POINT ( 'NONE',  ( -49.31753904153077173, -3.600000000000000089, -26.87512513604665187 ) ) ;
#241 = ORIENTED_EDGE ( 'NONE', *, *, #179, .F. ) ;
#242 = CARTESIAN_POINT ( 'NONE',  ( -49.31753904153077173, 4.000000000000000000, -30.07512513604665472 ) ) ;
#243 = ORIENTED_EDGE ( 'NONE', *, *, #46, .F. ) ;
#244 = PLANE ( 'NONE',  #149 ) ;
#245 = DIRECTION ( 'NONE',  ( 0.000000000000000000, 1.000000000000000000, 0.000000000000000000 ) ) ;
#246 = EDGE_CURVE ( 'NONE', #305, #200, #225, .T. ) ;
#247 = CARTESIAN_POINT ( 'NONE',  ( -49.31753904153077173, 3.600000000000000089, -23.67512513604665259 ) ) ;
#248 = TOROIDAL_SURFACE ( 'NONE', #321, 3.200000000000000622, 0.4000000000000000222 ) ;
#249 = CIRCLE ( 'NONE', #268, 2.050000000000003375 ) ;
#250 = DIRECTION ( 'NONE',  ( 0.000000000000000000, 1.000000000000000000, 0.000000000000000000 ) ) ;
#251 = EDGE_CURVE ( 'NONE', #391, #204, #281, .T. ) ;
#252 = CARTESIAN_POINT ( 'NONE',  ( -49.31753904153077173, -4.000000000000000000, -26.87512513604665187 ) ) ;
#253 = CARTESIAN_POINT ( 'NONE',  ( -49.31753904153077173, 3.600000000000000089, -26.87512513604665187 ) ) ;
#254 = AXIS2_PLACEMENT_3D ( 'NONE', #28, #188, #91 ) ;
#255 = ADVANCED_FACE ( 'NONE', ( #167 ), #170, .T. ) ;
#256 = DIRECTION ( 'NONE',  ( 0.000000000000000000, 0.000000000000000000, -1.000000000000000000 ) ) ;
#257 = EDGE_LOOP ( 'NONE', ( #2, #202 ) ) ;
#258 = DIRECTION ( 'NONE',  ( 1.000000000000000000, -0.000000000000000000, 1.224646799147353207E-16 ) ) ;
#259 = DIRECTION ( 'NONE',  ( 0.000000000000000000, 1.000000000000000000, 0.000000000000000000 ) ) ;
#260 = AXIS2_PLACEMENT_3D ( 'NONE', #277, #218, #26 ) ;
#261 = AXIS2_PLACEMENT_3D ( 'NONE', #158, #376, #291 ) ;
#262 = CARTESIAN_POINT ( 'NONE',  ( -49.31753904153077173, -3.600000000000000089, -26.87512513604665187 ) ) ;
#263 = EDGE_LOOP ( 'NONE', ( #211, #132, #111, #389 ) ) ;
#264 = PRESENTATION_STYLE_ASSIGNMENT (( #112 ) ) ;
#265 = ORIENTED_EDGE ( 'NONE', *, *, #392, .T. ) ;
#266 = CARTESIAN_POINT ( 'NONE',  ( -49.31753904153077173, 4.000000000000000000, -26.87512513604665187 ) ) ;
#267 = EDGE_CURVE ( 'NONE', #140, #353, #55, .T. ) ;
#268 = AXIS2_PLACEMENT_3D ( 'NONE', #266, #295, #388 ) ;
#269 = ORIENTED_EDGE ( 'NONE', *, *, #65, .T. ) ;
#270 = DIRECTION ( 'NONE',  ( -0.000000000000000000, -1.000000000000000000, -0.000000000000000000 ) ) ;
#271 = ORIENTED_EDGE ( 'NONE', *, *, #46, .T. ) ;
#272 = ORIENTED_EDGE ( 'NONE', *, *, #279, .F. ) ;
#273 = VERTEX_POINT ( 'NONE', #34 ) ;
#274 = ADVANCED_FACE ( 'NONE', ( #287 ), #115, .T. ) ;
#275 = DIRECTION ( 'NONE',  ( 0.000000000000000000, 0.000000000000000000, 1.000000000000000000 ) ) ;
#276 = DIRECTION ( 'NONE',  ( 1.000000000000000000, 0.000000000000000000, 0.000000000000000000 ) ) ;
#277 = CARTESIAN_POINT ( 'NONE',  ( -49.31753904153077173, 4.000000000000000000, -26.87512513604665187 ) ) ;
#278 = DIRECTION ( 'NONE',  ( -0.000000000000000000, -1.000000000000000000, -0.000000000000000000 ) ) ;
#279 = EDGE_CURVE ( 'NONE', #206, #204, #322, .T. ) ;
#280 = AXIS2_PLACEMENT_3D ( 'NONE', #247, #219, #85 ) ;
#281 = CIRCLE ( 'NONE', #222, 0.4000000000000010214 ) ;
#282 = DIRECTION ( 'NONE',  ( 1.000000000000000000, -0.000000000000000000, 1.224646799147353207E-16 ) ) ;
#283 = DIRECTION ( 'NONE',  ( 0.000000000000000000, 0.000000000000000000, 1.000000000000000000 ) ) ;
#284 = CARTESIAN_POINT ( 'NONE',  ( -49.31753904153077173, -3.600000000000000089, -26.87512513604665187 ) ) ;
#285 = ORIENTED_EDGE ( 'NONE', *, *, #32, .F. ) ;
#286 = CIRCLE ( 'NONE', #254, 3.200000000000001510 ) ;
#287 = FACE_OUTER_BOUND ( 'NONE', #237, .T. ) ;
#288 = EDGE_LOOP ( 'NONE', ( #163, #147, #80, #45 ) ) ;
#289 = DIRECTION ( 'NONE',  ( -0.000000000000000000, -1.000000000000000000, -0.000000000000000000 ) ) ;
#290 = EDGE_LOOP ( 'NONE', ( #136, #302 ) ) ;
#291 = DIRECTION ( 'NONE',  ( 0.000000000000000000, 0.000000000000000000, 1.000000000000000000 ) ) ;
#292 = AXIS2_PLACEMENT_3D ( 'NONE', #402, #278, #220 ) ;
#293 =( GEOMETRIC_REPRESENTATION_CONTEXT ( 3 ) GLOBAL_UNCERTAINTY_ASSIGNED_CONTEXT ( ( #75 ) ) GLOBAL_UNIT_ASSIGNED_CONTEXT ( ( #13, #335, #107 ) ) REPRESENTATION_CONTEXT ( 'NONE', 'WORKASPACE' ) );
#294 = DIRECTION ( 'NONE',  ( 0.000000000000000000, 0.000000000000000000, -1.000000000000000000 ) ) ;
#295 = DIRECTION ( 'NONE',  ( -0.000000000000000000, -1.000000000000000000, -0.000000000000000000 ) ) ;
#296 = EDGE_LOOP ( 'NONE', ( #11, #397, #299, #241 ) ) ;
#297 = ADVANCED_FACE ( 'NONE', ( #198 ), #341, .T. ) ;
#298 = SURFACE_SIDE_STYLE ('',( #323 ) ) ;
#299 = ORIENTED_EDGE ( 'NONE', *, *, #58, .F. ) ;
#300 = CIRCLE ( 'NONE', #260, 2.050000000000003375 ) ;
#301 = DIRECTION ( 'NONE',  ( 0.000000000000000000, 0.000000000000000000, 1.000000000000000000 ) ) ;
#302 = ORIENTED_EDGE ( 'NONE', *, *, #12, .T. ) ;
#303 = CARTESIAN_POINT ( 'NONE',  ( -49.31753904153077173, 4.000000000000000000, -23.27512513604665401 ) ) ;
#304 = ORIENTED_EDGE ( 'NONE', *, *, #326, .T. ) ;
#305 = VERTEX_POINT ( 'NONE', #130 ) ;
#306 = DIRECTION ( 'NONE',  ( -1.000000000000000000, 0.000000000000000000, 0.000000000000000000 ) ) ;
#307 = VECTOR ( 'NONE', #289, 1000.000000000000000 ) ;
#308 = ADVANCED_FACE ( 'NONE', ( #94 ), #66, .T. ) ;
#309 = PLANE ( 'NONE',  #60 ) ;
#310 = EDGE_CURVE ( 'NONE', #359, #273, #126, .T. ) ;
#311 = FACE_OUTER_BOUND ( 'NONE', #360, .T. ) ;
#312 = CIRCLE ( 'NONE', #332, 3.200000000000001510 ) ;
#313 = DIRECTION ( 'NONE',  ( -0.000000000000000000, -1.000000000000000000, -0.000000000000000000 ) ) ;
#314 = CARTESIAN_POINT ( 'NONE',  ( -49.31753904153077173, 3.600000000000000089, -24.82512513604665116 ) ) ;
#315 = ORIENTED_EDGE ( 'NONE', *, *, #134, .T. ) ;
#316 = CARTESIAN_POINT ( 'NONE',  ( -49.31753904153077173, -3.600000000000000089, -28.52512513604665401 ) ) ;
#317 = DIRECTION ( 'NONE',  ( 0.000000000000000000, 1.000000000000000000, 0.000000000000000000 ) ) ;
#318 = VERTEX_POINT ( 'NONE', #162 ) ;
#319 = DIRECTION ( 'NONE',  ( -1.000000000000000000, 0.000000000000000000, 0.000000000000000000 ) ) ;
#320 = VERTEX_POINT ( 'NONE', #230 ) ;
#321 = AXIS2_PLACEMENT_3D ( 'NONE', #25, #118, #340 ) ;
#322 = CIRCLE ( 'NONE', #93, 3.599999999999999201 ) ;
#323 = SURFACE_STYLE_FILL_AREA ( #43 ) ;
#324 = MANIFOLD_SOLID_BREP ( 'Fillet1', #160 ) ;
#325 = DIRECTION ( 'NONE',  ( 0.000000000000000000, 0.000000000000000000, 1.000000000000000000 ) ) ;
#326 = EDGE_CURVE ( 'NONE', #200, #359, #42, .T. ) ;
#327 = CARTESIAN_POINT ( 'NONE',  ( -49.31753904153077173, 3.600000000000000089, -26.87512513604665187 ) ) ;
#328 = DIRECTION ( 'NONE',  ( 0.000000000000000000, 1.000000000000000000, 0.000000000000000000 ) ) ;
#329 = PRODUCT_RELATED_PRODUCT_CATEGORY ( 'part', '', ( #400 ) ) ;
#330 = DIRECTION ( 'NONE',  ( 0.000000000000000000, 0.000000000000000000, -1.000000000000000000 ) ) ;
#331 = ORIENTED_EDGE ( 'NONE', *, *, #159, .T. ) ;
#332 = AXIS2_PLACEMENT_3D ( 'NONE', #385, #328, #173 ) ;
#333 = MECHANICAL_DESIGN_GEOMETRIC_PRESENTATION_REPRESENTATION (  '', ( #109 ), #293 ) ;
#334 = ORIENTED_EDGE ( 'NONE', *, *, #29, .F. ) ;
#335 =( NAMED_UNIT ( * ) PLANE_ANGLE_UNIT ( ) SI_UNIT ( $, .RADIAN. ) );
#336 = CARTESIAN_POINT ( 'NONE',  ( -49.31753904153077173, -3.600000000000000089, -26.87512513604665187 ) ) ;
#337 = APPLICATION_PROTOCOL_DEFINITION ( 'draft international standard', 'automotive_design', 1998, #165 ) ;
#338 = DIRECTION ( 'NONE',  ( 0.000000000000000000, 1.000000000000000000, 0.000000000000000000 ) ) ;
#339 = AXIS2_PLACEMENT_3D ( 'NONE', #113, #363, #325 ) ;
#340 = DIRECTION ( 'NONE',  ( 0.000000000000000000, 0.000000000000000000, 1.000000000000000000 ) ) ;
#341 = TOROIDAL_SURFACE ( 'NONE', #261, 2.050000000000002931, 0.4000000000000000222 ) ;
#342 = CARTESIAN_POINT ( 'NONE',  ( -49.31753904153077173, 3.600000000000000089, -23.27512513604665401 ) ) ;
#343 = CYLINDRICAL_SURFACE ( 'NONE', #99, 3.599999999999999201 ) ;
#344 = DIRECTION ( 'NONE',  ( 0.000000000000000000, 1.000000000000000000, 0.000000000000000000 ) ) ;
#345 = AXIS2_PLACEMENT_3D ( 'NONE', #67, #348, #4 ) ;
#346 = CARTESIAN_POINT ( 'NONE',  ( -49.31753904153077173, -3.600000000000000089, -25.22512513604664974 ) ) ;
#347 = ADVANCED_FACE ( 'NONE', ( #47 ), #87, .T. ) ;
#348 = DIRECTION ( 'NONE',  ( 0.000000000000000000, 1.000000000000000000, 0.000000000000000000 ) ) ;
#349 = ORIENTED_EDGE ( 'NONE', *, *, #179, .T. ) ;
#350 = AXIS2_PLACEMENT_3D ( 'NONE', #38, #62, #294 ) ;
#351 = DIRECTION ( 'NONE',  ( 0.000000000000000000, 0.000000000000000000, 1.000000000000000000 ) ) ;
#352 = CARTESIAN_POINT ( 'NONE',  ( -49.31753904153077173, 4.000000000000000000, -26.87512513604665187 ) ) ;
#353 = VERTEX_POINT ( 'NONE', #19 ) ;
#354 =( NAMED_UNIT ( * ) SI_UNIT ( $, .STERADIAN. ) SOLID_ANGLE_UNIT ( ) );
#355 = VERTEX_POINT ( 'NONE', #242 ) ;
#356 = PRODUCT_DEFINITION_CONTEXT ( 'detailed design', #78, 'design' ) ;
#357 = ORIENTED_EDGE ( 'NONE', *, *, #122, .T. ) ;
#358 = CARTESIAN_POINT ( 'NONE',  ( -49.31753904153077173, -3.600000000000000089, -26.87512513604665187 ) ) ;
#359 = VERTEX_POINT ( 'NONE', #15 ) ;
#360 = EDGE_LOOP ( 'NONE', ( #20, #172, #23, #285 ) ) ;
#361 = CIRCLE ( 'NONE', #339, 3.200000000000001510 ) ;
#362 = CARTESIAN_POINT ( 'NONE',  ( -49.31753904153077173, 4.000000000000000000, -30.47512513604665330 ) ) ;
#363 = DIRECTION ( 'NONE',  ( -0.000000000000000000, -1.000000000000000000, -0.000000000000000000 ) ) ;
#364 = DIRECTION ( 'NONE',  ( 0.000000000000000000, 0.000000000000000000, 1.000000000000000000 ) ) ;
#365 = SHAPE_DEFINITION_REPRESENTATION ( #375, #371 ) ;
#366 = DIRECTION ( 'NONE',  ( -0.000000000000000000, -1.000000000000000000, -0.000000000000000000 ) ) ;
#367 = AXIS2_PLACEMENT_3D ( 'NONE', #336, #53, #44 ) ;
#368 = DIRECTION ( 'NONE',  ( -1.000000000000000000, 0.000000000000000000, 0.000000000000000000 ) ) ;
#369 = AXIS2_PLACEMENT_3D ( 'NONE', #327, #210, #301 ) ;
#370 = DIRECTION ( 'NONE',  ( 0.000000000000000000, -0.000000000000000000, 1.000000000000000000 ) ) ;
#371 = ADVANCED_BREP_SHAPE_REPRESENTATION ( '\X2\041204420443043b043a0430\X0\', ( #324, #374 ), #191 ) ;
#372 = EDGE_CURVE ( 'NONE', #200, #229, #208, .T. ) ;
#373 = DIRECTION ( 'NONE',  ( 0.000000000000000000, 0.000000000000000000, 1.000000000000000000 ) ) ;
#374 = AXIS2_PLACEMENT_3D ( 'NONE', #24, #146, #276 ) ;
#375 = PRODUCT_DEFINITION_SHAPE ( 'NONE', 'NONE',  #182 ) ;
#376 = DIRECTION ( 'NONE',  ( 0.000000000000000000, 1.000000000000000000, 0.000000000000000000 ) ) ;
#377 = EDGE_LOOP ( 'NONE', ( #14, #100, #349, #176 ) ) ;
#378 = EDGE_CURVE ( 'NONE', #353, #204, #139, .T. ) ;
#379 = CARTESIAN_POINT ( 'NONE',  ( -49.31753904153077173, -3.600000000000000089, -30.47512513604665330 ) ) ;
#380 = ORIENTED_EDGE ( 'NONE', *, *, #251, .F. ) ;
#381 = AXIS2_PLACEMENT_3D ( 'NONE', #187, #245, #88 ) ;
#382 = AXIS2_PLACEMENT_3D ( 'NONE', #240, #181, #233 ) ;
#383 = CARTESIAN_POINT ( 'NONE',  ( -49.31753904153077173, -4.000000000000000000, -26.87512513604665187 ) ) ;
#384 = DIRECTION ( 'NONE',  ( 1.000000000000000000, -0.000000000000000000, 1.224646799147353207E-16 ) ) ;
#385 = CARTESIAN_POINT ( 'NONE',  ( -49.31753904153077173, 4.000000000000000000, -26.87512513604665187 ) ) ;
#386 = VECTOR ( 'NONE', #366, 1000.000000000000000 ) ;
#387 = CIRCLE ( 'NONE', #369, 1.650000000000002132 ) ;
#388 = DIRECTION ( 'NONE',  ( 0.000000000000000000, 0.000000000000000000, 1.000000000000000000 ) ) ;
#389 = ORIENTED_EDGE ( 'NONE', *, *, #372, .T. ) ;
#390 = CARTESIAN_POINT ( 'NONE',  ( -49.31753904153077173, -3.600000000000000089, -26.87512513604665187 ) ) ;
#391 = VERTEX_POINT ( 'NONE', #178 ) ;
#392 = EDGE_CURVE ( 'NONE', #140, #206, #175, .T. ) ;
#393 = ORIENTED_EDGE ( 'NONE', *, *, #378, .F. ) ;
#394 = EDGE_CURVE ( 'NONE', #305, #106, #387, .T. ) ;
#395 = CIRCLE ( 'NONE', #81, 2.050000000000003375 ) ;
#396 = AXIS2_PLACEMENT_3D ( 'NONE', #1, #258, #256 ) ;
#397 = ORIENTED_EDGE ( 'NONE', *, *, #209, .T. ) ;
#398 = ADVANCED_FACE ( 'NONE', ( #52 ), #105, .T. ) ;
#399 = FACE_OUTER_BOUND ( 'NONE', #73, .T. ) ;
#400 = PRODUCT ( '\X2\041204420443043b043a0430\X0\', '\X2\041204420443043b043a0430\X0\', '', ( #212 ) ) ;
#401 = EDGE_CURVE ( 'NONE', #229, #200, #197, .T. ) ;
#402 = CARTESIAN_POINT ( 'NONE',  ( -49.31753904153077173, 3.600000000000000089, -26.87512513604665187 ) ) ;
#403 = DIRECTION ( 'NONE',  ( 0.000000000000000000, -0.000000000000000000, 1.000000000000000000 ) ) ;
#404 = PRESENTATION_LAYER_ASSIGNMENT (  '', '', ( #109 ) ) ;
#405 = CARTESIAN_POINT ( 'NONE',  ( -49.31753904153077173, -4.000000000000000000, -26.87512513604665187 ) ) ;
#406 = FACE_OUTER_BOUND ( 'NONE', #290, .T. ) ;
#407 = EDGE_CURVE ( 'NONE', #180, #320, #249, .T. ) ;
ENDSEC;
END-ISO-10303-21;
