ISO-10303-21;
HEADER;
FILE_DESCRIPTION (( 'STEP AP214' ),
    '1' );
FILE_NAME ('Рамка_Светодиода.STEP',
    '2026-08-17T03:34:23',
    ( 'Пользователь Windows' ),
    ( '' ),
    'SwSTEP 2.0',
    'SolidWorks 2023',
    '' );
FILE_SCHEMA (( 'AUTOMOTIVE_DESIGN' ));
ENDSEC;

DATA;
#1 = CARTESIAN_POINT ( 'NONE',  ( -14.82077455019316758, -0.3158646431937484622, 38.16288247749043450 ) ) ;
#2 =( GEOMETRIC_REPRESENTATION_CONTEXT ( 3 ) GLOBAL_UNCERTAINTY_ASSIGNED_CONTEXT ( ( #573 ) ) GLOBAL_UNIT_ASSIGNED_CONTEXT ( ( #148, #453, #637 ) ) REPRESENTATION_CONTEXT ( 'NONE', 'WORKASPACE' ) );
#3 = FACE_OUTER_BOUND ( 'NONE', #1090, .T. ) ;
#4 = ORIENTED_EDGE ( 'NONE', *, *, #696, .T. ) ;
#5 = ORIENTED_EDGE ( 'NONE', *, *, #642, .T. ) ;
#6 = DIRECTION ( 'NONE',  ( -1.000000000000000000, -4.336808689942021680E-16, 0.000000000000000000 ) ) ;
#7 = ADVANCED_FACE ( 'NONE', ( #614 ), #703, .T. ) ;
#8 = CARTESIAN_POINT ( 'NONE',  ( -26.23498811256627761, -0.3158646431937581212, 26.40552316460972548 ) ) ;
#9 = CARTESIAN_POINT ( 'NONE',  ( -25.52788133137972082, 0.6841353568062467083, 27.11262994579626806 ) ) ;
#10 = ORIENTED_EDGE ( 'NONE', *, *, #465, .F. ) ;
#11 = CARTESIAN_POINT ( 'NONE',  ( -14.11366776900661613, -0.3158646431937477406, 38.86998925867697352 ) ) ;
#12 = LINE ( 'NONE', #587, #1176 ) ;
#13 = ADVANCED_FACE ( 'NONE', ( #337 ), #238, .T. ) ;
#14 = DIRECTION ( 'NONE',  ( 0.7071067811865439090, 1.975602903296936145E-17, -0.7071067811865512365 ) ) ;
#15 = ORIENTED_EDGE ( 'NONE', *, *, #610, .F. ) ;
#16 = AXIS2_PLACEMENT_3D ( 'NONE', #211, #193, #1037 ) ;
#17 = ORIENTED_EDGE ( 'NONE', *, *, #108, .F. ) ;
#18 = DIRECTION ( 'NONE',  ( 0.000000000000000000, -0.7071067811865487940, -0.7071067811865463515 ) ) ;
#19 = AXIS2_PLACEMENT_3D ( 'NONE', #618, #867, #318 ) ;
#20 = AXIS2_PLACEMENT_3D ( 'NONE', #289, #186, #296 ) ;
#21 = DIRECTION ( 'NONE',  ( -0.7071067811865461294, 0.000000000000000000, -0.7071067811865489050 ) ) ;
#22 = DIRECTION ( 'NONE',  ( 0.000000000000000000, -0.7071067811865489050, 0.7071067811865462405 ) ) ;
#23 = AXIS2_PLACEMENT_3D ( 'NONE', #853, #384, #476 ) ;
#24 = ORIENTED_EDGE ( 'NONE', *, *, #45, .T. ) ;
#25 = CARTESIAN_POINT ( 'NONE',  ( -26.11366776900663211, -0.3158646431937587873, 24.86998925867699128 ) ) ;
#26 = DIRECTION ( 'NONE',  ( -0.5000000000000018874, 0.7071067811865482389, 0.4999999999999970024 ) ) ;
#27 = CARTESIAN_POINT ( 'NONE',  ( -24.69945420663353985, 1.284135356806241690, 24.28420282105007999 ) ) ;
#28 = EDGE_CURVE ( 'NONE', #87, #579, #762, .T. ) ;
#29 = ORIENTED_EDGE ( 'NONE', *, *, #1066, .T. ) ;
#30 = CARTESIAN_POINT ( 'NONE',  ( -16.35630845612590178, -0.3158646431937481847, 40.28420282105007288 ) ) ;
#31 = DIRECTION ( 'NONE',  ( -0.7071067811865439090, -1.975602903296936145E-17, 0.7071067811865512365 ) ) ;
#32 = FACE_BOUND ( 'NONE', #113, .T. ) ;
#33 = ORIENTED_EDGE ( 'NONE', *, *, #344, .F. ) ;
#34 = EDGE_CURVE ( 'NONE', #1134, #345, #714, .T. ) ;
#35 = DIRECTION ( 'NONE',  ( 1.000000000000000000, 4.336808689942013792E-16, 0.000000000000000000 ) ) ;
#36 = PRODUCT_DEFINITION_SHAPE ( 'NONE', 'NONE',  #367 ) ;
#37 = VECTOR ( 'NONE', #695, 1000.000000000000000 ) ;
#38 = LINE ( 'NONE', #611, #451 ) ;
#39 = AXIS2_PLACEMENT_3D ( 'NONE', #151, #861, #1173 ) ;
#40 = PLANE ( 'NONE',  #56 ) ;
#41 = CIRCLE ( 'NONE', #879, 1.000000000000000888 ) ;
#42 = ORIENTED_EDGE ( 'NONE', *, *, #739, .T. ) ;
#43 = DIRECTION ( 'NONE',  ( -1.000000000000000000, 0.000000000000000000, 8.316879641572898547E-16 ) ) ;
#44 = CARTESIAN_POINT ( 'NONE',  ( -20.52788133137972082, -0.3158646431937554011, 27.23420282105008638 ) ) ;
#45 = EDGE_CURVE ( 'NONE', #1027, #135, #987, .T. ) ;
#46 = DIRECTION ( 'NONE',  ( 0.7071067811865485719, 0.7071067811865465735, -5.240905974952590379E-16 ) ) ;
#47 = DIRECTION ( 'NONE',  ( 0.000000000000000000, 0.000000000000000000, -1.000000000000000000 ) ) ;
#48 = DIRECTION ( 'NONE',  ( -1.000000000000000000, -4.336808689942013792E-16, 0.000000000000000000 ) ) ;
#49 = CARTESIAN_POINT ( 'NONE',  ( -15.64920167493935566, -0.3158646431937484622, 38.99130960223662612 ) ) ;
#50 = LINE ( 'NONE', #226, #720 ) ;
#51 = EDGE_CURVE ( 'NONE', #579, #772, #253, .T. ) ;
#52 = ORIENTED_EDGE ( 'NONE', *, *, #382, .F. ) ;
#53 = ORIENTED_EDGE ( 'NONE', *, *, #1155, .T. ) ;
#54 = ORIENTED_EDGE ( 'NONE', *, *, #616, .T. ) ;
#55 = DIRECTION ( 'NONE',  ( -4.336808689942007875E-16, 1.000000000000000000, -4.057416247971344741E-16 ) ) ;
#56 = AXIS2_PLACEMENT_3D ( 'NONE', #329, #966, #324 ) ;
#57 = CARTESIAN_POINT ( 'NONE',  ( -9.649201674939357432, -0.3158646431937488508, 31.57709603986358360 ) ) ;
#58 = VECTOR ( 'NONE', #1112, 1000.000000000000000 ) ;
#59 = VECTOR ( 'NONE', #1063, 1000.000000000000000 ) ;
#60 = DIRECTION ( 'NONE',  ( 1.734723475976805517E-15, 0.000000000000000000, -1.000000000000000000 ) ) ;
#61 = DIRECTION ( 'NONE',  ( 1.000000000000000000, 0.000000000000000000, 0.000000000000000000 ) ) ;
#62 = CIRCLE ( 'NONE', #357, 2.000000000000001776 ) ;
#63 = ORIENTED_EDGE ( 'NONE', *, *, #1049, .T. ) ;
#64 = CARTESIAN_POINT ( 'NONE',  ( -16.35630845612590889, -0.3158646431937542909, 25.28420282105007644 ) ) ;
#65 = DIRECTION ( 'NONE',  ( 0.5000000000000033307, -0.7071067811865465735, 0.4999999999999981126 ) ) ;
#66 = ORIENTED_EDGE ( 'NONE', *, *, #680, .T. ) ;
#67 = DIRECTION ( 'NONE',  ( -0.000000000000000000, 1.000000000000000000, -0.000000000000000000 ) ) ;
#68 = VERTEX_POINT ( 'NONE', #518 ) ;
#69 = EDGE_CURVE ( 'NONE', #641, #855, #463, .T. ) ;
#70 = ORIENTED_EDGE ( 'NONE', *, *, #806, .T. ) ;
#71 = LINE ( 'NONE', #169, #919 ) ;
#72 = DIRECTION ( 'NONE',  ( 1.000000000000000000, 4.053092233590673219E-16, 0.000000000000000000 ) ) ;
#73 = PRODUCT_CONTEXT ( 'NONE', #903, 'mechanical' ) ;
#74 = ORIENTED_EDGE ( 'NONE', *, *, #912, .F. ) ;
#75 = ORIENTED_EDGE ( 'NONE', *, *, #942, .F. ) ;
#76 = FACE_OUTER_BOUND ( 'NONE', #385, .T. ) ;
#77 = CARTESIAN_POINT ( 'NONE',  ( -24.69945420663353630, -0.3158646431937575660, 26.28420282105007999 ) ) ;
#78 = AXIS2_PLACEMENT_3D ( 'NONE', #619, #803, #408 ) ;
#79 = VECTOR ( 'NONE', #1051, 1000.000000000000000 ) ;
#80 = ORIENTED_EDGE ( 'NONE', *, *, #730, .T. ) ;
#81 = ORIENTED_EDGE ( 'NONE', *, *, #659, .F. ) ;
#82 = AXIS2_PLACEMENT_3D ( 'NONE', #224, #209, #586 ) ;
#83 = DIRECTION ( 'NONE',  ( 1.000000000000000000, 4.286036293534464861E-16, 0.000000000000000000 ) ) ;
#84 = CARTESIAN_POINT ( 'NONE',  ( -26.52788133137971371, -0.3158646431937537913, 37.45577569630388837 ) ) ;
#85 = AXIS2_PLACEMENT_3D ( 'NONE', #524, #895, #60 ) ;
#86 = EDGE_CURVE ( 'NONE', #745, #223, #625, .T. ) ;
#87 = VERTEX_POINT ( 'NONE', #709 ) ;
#88 = CARTESIAN_POINT ( 'NONE',  ( -14.11366776900661613, 0.6841353568062551460, 38.86998925867697352 ) ) ;
#89 = DIRECTION ( 'NONE',  ( 0.000000000000000000, 0.000000000000000000, 1.000000000000000000 ) ) ;
#90 = EDGE_CURVE ( 'NONE', #1027, #761, #275, .T. ) ;
#91 = CARTESIAN_POINT ( 'NONE',  ( -14.11366776900663211, 0.6841353568062508161, 25.69841638342316870 ) ) ;
#92 = ORIENTED_EDGE ( 'NONE', *, *, #840, .T. ) ;
#93 = ORIENTED_EDGE ( 'NONE', *, *, #990, .F. ) ;
#94 = DIRECTION ( 'NONE',  ( -1.734723475976805517E-15, 0.000000000000000000, -1.000000000000000000 ) ) ;
#95 = CARTESIAN_POINT ( 'NONE',  ( -20.52788133137972082, 2.284135356806246797, 32.28420282105007999 ) ) ;
#96 = DIRECTION ( 'NONE',  ( 0.000000000000000000, 1.000000000000000000, 0.000000000000000000 ) ) ;
#97 = ORIENTED_EDGE ( 'NONE', *, *, #406, .T. ) ;
#98 = AXIS2_PLACEMENT_3D ( 'NONE', #77, #719, #273 ) ;
#99 = EDGE_CURVE ( 'NONE', #374, #345, #620, .T. ) ;
#100 = VECTOR ( 'NONE', #706, 1000.000000000000000 ) ;
#101 = ORIENTED_EDGE ( 'NONE', *, *, #872, .T. ) ;
#102 = CYLINDRICAL_SURFACE ( 'NONE', #1101, 1.999999999999998224 ) ;
#103 = AXIS2_PLACEMENT_3D ( 'NONE', #192, #461, #558 ) ;
#104 = DIRECTION ( 'NONE',  ( 4.336808689942007875E-16, -1.000000000000000000, 4.057416247971344741E-16 ) ) ;
#105 = CYLINDRICAL_SURFACE ( 'NONE', #985, 4.049999999999994493 ) ;
#106 = PRODUCT_DEFINITION_CONTEXT ( 'detailed design', #569, 'design' ) ;
#107 = ORIENTED_EDGE ( 'NONE', *, *, #251, .F. ) ;
#108 = EDGE_CURVE ( 'NONE', #855, #533, #183, .T. ) ;
#109 = DIRECTION ( 'NONE',  ( -0.7071067811865512365, -5.935613376403758071E-16, -0.7071067811865439090 ) ) ;
#110 = DIRECTION ( 'NONE',  ( -1.000000000000000000, -4.336808689942013792E-16, 0.000000000000000000 ) ) ;
#111 = DIRECTION ( 'NONE',  ( -0.5000000000000019984, -0.7071067811865482389, -0.4999999999999971689 ) ) ;
#112 = EDGE_LOOP ( 'NONE', ( #928, #281, #454, #839 ) ) ;
#113 = EDGE_LOOP ( 'NONE', ( #54, #1034 ) ) ;
#114 = CARTESIAN_POINT ( 'NONE',  ( -24.69945420663352209, 1.284135356806247463, 38.28420282105007999 ) ) ;
#115 = DIRECTION ( 'NONE',  ( 0.7071067811865489050, 1.975602903297370018E-17, -0.7071067811865461294 ) ) ;
#116 = CARTESIAN_POINT ( 'NONE',  ( -26.94209489375282018, 1.284135356806241468, 25.69841638342317225 ) ) ;
#117 = ORIENTED_EDGE ( 'NONE', *, *, #754, .T. ) ;
#118 = LINE ( 'NONE', #25, #876 ) ;
#119 = AXIS2_PLACEMENT_3D ( 'NONE', #250, #55, #536 ) ;
#120 = CIRCLE ( 'NONE', #938, 2.000000000000001776 ) ;
#121 = DIRECTION ( 'NONE',  ( 1.000000000000000000, 4.053092233590673219E-16, 0.000000000000000000 ) ) ;
#122 = DIRECTION ( 'NONE',  ( -4.336808689942008368E-16, 1.000000000000000000, -4.057416247971344741E-16 ) ) ;
#123 = ADVANCED_FACE ( 'NONE', ( #436 ), #1001, .F. ) ;
#124 = ORIENTED_EDGE ( 'NONE', *, *, #907, .F. ) ;
#125 = VERTEX_POINT ( 'NONE', #744 ) ;
#126 = CARTESIAN_POINT ( 'NONE',  ( -16.35630845612590178, 0.6841353568062554791, 40.28420282105007288 ) ) ;
#127 = CARTESIAN_POINT ( 'NONE',  ( -26.23498811256627761, -0.3158646431937581212, 26.40552316460972548 ) ) ;
#128 = DIRECTION ( 'NONE',  ( 0.000000000000000000, 1.000000000000000000, 0.000000000000000000 ) ) ;
#129 = ORIENTED_EDGE ( 'NONE', *, *, #69, .F. ) ;
#130 = EDGE_CURVE ( 'NONE', #321, #257, #142, .T. ) ;
#131 = ORIENTED_EDGE ( 'NONE', *, *, #696, .F. ) ;
#132 = DIRECTION ( 'NONE',  ( -4.336808689942008368E-16, 1.000000000000000000, -4.057416247971344741E-16 ) ) ;
#133 = DIRECTION ( 'NONE',  ( 4.336808689942007875E-16, -1.000000000000000000, 4.057416247971344741E-16 ) ) ;
#134 = CARTESIAN_POINT ( 'NONE',  ( -16.35630845612590178, 1.284135356806251904, 40.28420282105007288 ) ) ;
#135 = VERTEX_POINT ( 'NONE', #931 ) ;
#136 = LINE ( 'NONE', #769, #530 ) ;
#137 = ADVANCED_FACE ( 'NONE', ( #665 ), #105, .F. ) ;
#138 = FACE_OUTER_BOUND ( 'NONE', #156, .T. ) ;
#139 = AXIS2_PLACEMENT_3D ( 'NONE', #364, #346, #448 ) ;
#140 = LINE ( 'NONE', #511, #1174 ) ;
#141 = CLOSED_SHELL ( 'NONE', ( #260, #690, #137, #160, #308, #1017, #1169, #1140, #210, #601, #1106, #361, #1178, #7, #747, #554, #1024, #1131, #997, #574, #399, #189, #580, #880, #301, #933, #293, #486, #825, #968, #13, #1009, #286, #904, #173, #123, #736, #450, #1124, #854, #1148 ) ) ;
#142 = LINE ( 'NONE', #513, #512 ) ;
#143 = CARTESIAN_POINT ( 'NONE',  ( -15.52788133137972437, 1.284135356806247019, 27.11262994579626451 ) ) ;
#144 = EDGE_CURVE ( 'NONE', #935, #437, #822, .T. ) ;
#145 = LINE ( 'NONE', #1156, #817 ) ;
#146 = DIRECTION ( 'NONE',  ( 3.354344060928796202E-16, 4.057416247971346220E-16, 1.000000000000000000 ) ) ;
#147 = CARTESIAN_POINT ( 'NONE',  ( -16.35630845612591600, -0.3158646431937546795, 24.28420282105007644 ) ) ;
#148 =( LENGTH_UNIT ( ) NAMED_UNIT ( * ) SI_UNIT ( .MILLI., .METRE. ) );
#149 = EDGE_LOOP ( 'NONE', ( #1002, #17, #638, #440 ) ) ;
#150 = ORIENTED_EDGE ( 'NONE', *, *, #90, .F. ) ;
#151 = CARTESIAN_POINT ( 'NONE',  ( -20.52788133137972082, 1.284135356806247019, 32.28420282105007999 ) ) ;
#152 = FACE_OUTER_BOUND ( 'NONE', #359, .T. ) ;
#153 = EDGE_CURVE ( 'NONE', #627, #1203, #487, .T. ) ;
#154 = CARTESIAN_POINT ( 'NONE',  ( -26.11366776900663211, 0.6841353568062460422, 24.86998925867699128 ) ) ;
#155 = EDGE_LOOP ( 'NONE', ( #53, #473, #575, #1116 ) ) ;
#156 = EDGE_LOOP ( 'NONE', ( #865, #390, #726, #1088 ) ) ;
#157 = CARTESIAN_POINT ( 'NONE',  ( -24.69945420663352209, -0.3158646431937522370, 39.28420282105007999 ) ) ;
#158 = VECTOR ( 'NONE', #595, 1000.000000000000114 ) ;
#159 = LINE ( 'NONE', #910, #526 ) ;
#160 = ADVANCED_FACE ( 'NONE', ( #3, #1126 ), #1038, .T. ) ;
#161 = AXIS2_PLACEMENT_3D ( 'NONE', #1215, #949, #1128 ) ;
#162 = DIRECTION ( 'NONE',  ( -0.7071067811865505703, 0.000000000000000000, 0.7071067811865444641 ) ) ;
#163 = EDGE_LOOP ( 'NONE', ( #538, #171, #442, #302 ) ) ;
#164 = LINE ( 'NONE', #819, #1159 ) ;
#165 = DIRECTION ( 'NONE',  ( 4.336808689942007875E-16, -1.000000000000000000, 4.057416247971344741E-16 ) ) ;
#166 = EDGE_CURVE ( 'NONE', #988, #1067, #494, .T. ) ;
#167 = EDGE_LOOP ( 'NONE', ( #556, #1047, #24, #228 ) ) ;
#168 = EDGE_LOOP ( 'NONE', ( #5, #190 ) ) ;
#169 = CARTESIAN_POINT ( 'NONE',  ( -14.11366776900663211, -0.3158646431937531251, 25.69841638342316870 ) ) ;
#170 = DIRECTION ( 'NONE',  ( 1.000000000000000000, 4.336808689942028583E-16, 0.000000000000000000 ) ) ;
#171 = ORIENTED_EDGE ( 'NONE', *, *, #325, .T. ) ;
#172 = ORIENTED_EDGE ( 'NONE', *, *, #310, .F. ) ;
#173 = ADVANCED_FACE ( 'NONE', ( #658 ), #860, .T. ) ;
#174 = FILL_AREA_STYLE ('',( #268 ) ) ;
#175 = DIRECTION ( 'NONE',  ( -0.5000000000000018874, -0.7071067811865482389, 0.4999999999999970024 ) ) ;
#176 = CONICAL_SURFACE ( 'NONE', #977, 4.049999999999994493, 0.7853981633974476129 ) ;
#177 = AXIS2_PLACEMENT_3D ( 'NONE', #297, #201, #187 ) ;
#178 = AXIS2_PLACEMENT_3D ( 'NONE', #11, #109, #738 ) ;
#179 = ORIENTED_EDGE ( 'NONE', *, *, #659, .T. ) ;
#180 = CARTESIAN_POINT ( 'NONE',  ( -16.35630845612591244, -0.3158646431937540133, 26.28420282105007644 ) ) ;
#181 = EDGE_CURVE ( 'NONE', #1132, #988, #708, .T. ) ;
#182 = DIRECTION ( 'NONE',  ( -4.336808689942008368E-16, 1.000000000000000000, -4.057416247971344741E-16 ) ) ;
#183 = CIRCLE ( 'NONE', #85, 2.000000000000001776 ) ;
#184 = CARTESIAN_POINT ( 'NONE',  ( -25.52788133137971371, -0.3158646431937533472, 37.45577569630388837 ) ) ;
#185 = EDGE_LOOP ( 'NONE', ( #1010, #313, #1184, #711 ) ) ;
#186 = DIRECTION ( 'NONE',  ( -4.336808689942008368E-16, 1.000000000000000000, -4.057416247971344741E-16 ) ) ;
#187 = DIRECTION ( 'NONE',  ( 1.000000000000000000, 4.458401456949740689E-16, 0.000000000000000000 ) ) ;
#188 = CARTESIAN_POINT ( 'NONE',  ( -24.69945420663352209, -0.3158646431937522370, 39.28420282105007999 ) ) ;
#189 = ADVANCED_FACE ( 'NONE', ( #862 ), #1025, .F. ) ;
#190 = ORIENTED_EDGE ( 'NONE', *, *, #942, .T. ) ;
#191 = ORIENTED_EDGE ( 'NONE', *, *, #718, .F. ) ;
#192 = CARTESIAN_POINT ( 'NONE',  ( -14.52788133137971904, -0.3158646431937482402, 38.28420282105007288 ) ) ;
#193 = DIRECTION ( 'NONE',  ( -1.000000000000000000, -4.336808689942005410E-16, 6.708688121857588459E-16 ) ) ;
#194 = DIRECTION ( 'NONE',  ( -1.000000000000000000, -4.336808689942013792E-16, 0.000000000000000000 ) ) ;
#195 = VECTOR ( 'NONE', #1113, 1000.000000000000000 ) ;
#196 = EDGE_CURVE ( 'NONE', #1172, #525, #410, .T. ) ;
#197 = AXIS2_PLACEMENT_3D ( 'NONE', #95, #370, #1144 ) ;
#198 = VECTOR ( 'NONE', #309, 1000.000000000000000 ) ;
#199 = ORIENTED_EDGE ( 'NONE', *, *, #443, .F. ) ;
#200 = CARTESIAN_POINT ( 'NONE',  ( -14.11366776900663211, 0.6841353568062503721, 25.69841638342316870 ) ) ;
#201 = DIRECTION ( 'NONE',  ( 4.286036293534464861E-16, -1.000000000000000000, 4.060455435980019602E-16 ) ) ;
#202 = CARTESIAN_POINT ( 'NONE',  ( -24.69945420663352209, -0.3158646431937527366, 38.28420282105007999 ) ) ;
#203 = VERTEX_POINT ( 'NONE', #116 ) ;
#204 = DIRECTION ( 'NONE',  ( 0.7071067811865505703, 1.975602903297498208E-17, -0.7071067811865444641 ) ) ;
#205 = CARTESIAN_POINT ( 'NONE',  ( -15.52788133137971727, -0.3158646431937490173, 37.45577569630388837 ) ) ;
#206 = DIRECTION ( 'NONE',  ( 0.000000000000000000, 0.000000000000000000, -1.000000000000000000 ) ) ;
#207 = ORIENTED_EDGE ( 'NONE', *, *, #666, .T. ) ;
#208 = ORIENTED_EDGE ( 'NONE', *, *, #153, .F. ) ;
#209 = DIRECTION ( 'NONE',  ( -4.336808689942008368E-16, 1.000000000000000000, -4.057416247971344741E-16 ) ) ;
#210 = ADVANCED_FACE ( 'NONE', ( #766 ), #1031, .T. ) ;
#211 = CARTESIAN_POINT ( 'NONE',  ( -13.52788133137972437, -0.3158646431937522925, 27.11262994579626096 ) ) ;
#212 = DIRECTION ( 'NONE',  ( -1.000000000000000000, -4.283267841918047918E-16, 0.000000000000000000 ) ) ;
#213 = EDGE_LOOP ( 'NONE', ( #1214, #491, #1020, #807 ) ) ;
#214 = VECTOR ( 'NONE', #14, 999.9999999999998863 ) ;
#215 = ORIENTED_EDGE ( 'NONE', *, *, #1186, .T. ) ;
#216 = CARTESIAN_POINT ( 'NONE',  ( -14.11366776900663211, -0.3158646431937531251, 25.69841638342316870 ) ) ;
#217 = CIRCLE ( 'NONE', #317, 0.9999999999999991118 ) ;
#218 = CIRCLE ( 'NONE', #1137, 4.049999999999994493 ) ;
#219 = PLANE ( 'NONE',  #471 ) ;
#220 = EDGE_CURVE ( 'NONE', #988, #961, #578, .T. ) ;
#221 = LINE ( 'NONE', #1065, #894 ) ;
#222 = ORIENTED_EDGE ( 'NONE', *, *, #1081, .T. ) ;
#223 = VERTEX_POINT ( 'NONE', #1150 ) ;
#224 = CARTESIAN_POINT ( 'NONE',  ( -25.52788133137972082, -0.3158646431937575105, 27.11262994579626806 ) ) ;
#225 = CARTESIAN_POINT ( 'NONE',  ( -15.52788133137971727, 1.284135356806251016, 37.45577569630388837 ) ) ;
#226 = CARTESIAN_POINT ( 'NONE',  ( -14.11366776900661613, 0.6841353568062551460, 38.86998925867697352 ) ) ;
#227 = EDGE_CURVE ( 'NONE', #988, #832, #946, .T. ) ;
#228 = ORIENTED_EDGE ( 'NONE', *, *, #846, .F. ) ;
#229 = DIRECTION ( 'NONE',  ( 4.336808689942007875E-16, -1.000000000000000000, 4.057416247971344741E-16 ) ) ;
#230 = LINE ( 'NONE', #515, #741 ) ;
#231 = PLANE ( 'NONE',  #449 ) ;
#232 = EDGE_CURVE ( 'NONE', #729, #923, #952, .T. ) ;
#233 = ORIENTED_EDGE ( 'NONE', *, *, #730, .F. ) ;
#234 = CARTESIAN_POINT ( 'NONE',  ( -16.35630845612591244, 0.6841353568062505941, 26.28420282105007644 ) ) ;
#235 = CIRCLE ( 'NONE', #430, 2.000000000000003553 ) ;
#236 = CARTESIAN_POINT ( 'NONE',  ( -25.52788133137971371, 1.284135356806246797, 37.45577569630388837 ) ) ;
#237 = CARTESIAN_POINT ( 'NONE',  ( -13.52788133137971727, 0.6841353568062544799, 37.45577569630388837 ) ) ;
#238 = CONICAL_SURFACE ( 'NONE', #1082, 1.000000000000000888, 0.7853981633974459475 ) ;
#239 = ORIENTED_EDGE ( 'NONE', *, *, #1117, .F. ) ;
#240 = PRODUCT_DEFINITION_FORMATION_WITH_SPECIFIED_SOURCE ( 'ANY', '', #1045, .NOT_KNOWN. ) ;
#241 = VECTOR ( 'NONE', #1189, 1000.000000000000000 ) ;
#242 = VERTEX_POINT ( 'NONE', #188 ) ;
#243 = ORIENTED_EDGE ( 'NONE', *, *, #806, .F. ) ;
#244 = DIRECTION ( 'NONE',  ( -0.7071067811865505703, -1.975602903297498208E-17, 0.7071067811865444641 ) ) ;
#245 = CARTESIAN_POINT ( 'NONE',  ( -26.23498811256625629, -0.3158646431937533472, 38.16288247749044160 ) ) ;
#246 = DIRECTION ( 'NONE',  ( -0.7071067811865444641, -5.935613376403756099E-16, -0.7071067811865505703 ) ) ;
#247 = DIRECTION ( 'NONE',  ( 1.000000000000000000, 4.336808689942028583E-16, 0.000000000000000000 ) ) ;
#248 = ORIENTED_EDGE ( 'NONE', *, *, #958, .F. ) ;
#249 = VERTEX_POINT ( 'NONE', #27 ) ;
#250 = CARTESIAN_POINT ( 'NONE',  ( -16.35630845612591244, 1.284135356806246131, 26.28420282105007644 ) ) ;
#251 = EDGE_CURVE ( 'NONE', #1027, #592, #760, .T. ) ;
#252 = CARTESIAN_POINT ( 'NONE',  ( -16.35630845612590178, -0.3158646431937481847, 40.28420282105007288 ) ) ;
#253 = LINE ( 'NONE', #734, #298 ) ;
#254 = ORIENTED_EDGE ( 'NONE', *, *, #99, .F. ) ;
#255 = DIRECTION ( 'NONE',  ( -0.7071067811865504593, 0.000000000000000000, 0.7071067811865445751 ) ) ;
#256 = AXIS2_PLACEMENT_3D ( 'NONE', #531, #65, #1105 ) ;
#257 = VERTEX_POINT ( 'NONE', #299 ) ;
#258 = VECTOR ( 'NONE', #31, 999.9999999999998863 ) ;
#259 = CARTESIAN_POINT ( 'NONE',  ( -16.35630845612591600, 1.284135356806245465, 24.28420282105007644 ) ) ;
#260 = ADVANCED_FACE ( 'NONE', ( #1139 ), #176, .F. ) ;
#261 = VECTOR ( 'NONE', #18, 999.9999999999998863 ) ;
#262 = VERTEX_POINT ( 'NONE', #403 ) ;
#263 = ORIENTED_EDGE ( 'NONE', *, *, #1206, .F. ) ;
#264 =( LENGTH_UNIT ( ) NAMED_UNIT ( * ) SI_UNIT ( .MILLI., .METRE. ) );
#265 = LINE ( 'NONE', #84, #391 ) ;
#266 = EDGE_CURVE ( 'NONE', #223, #68, #561, .T. ) ;
#267 = ORIENTED_EDGE ( 'NONE', *, *, #596, .F. ) ;
#268 = FILL_AREA_STYLE_COLOUR ( '', #1213 ) ;
#269 = DIRECTION ( 'NONE',  ( -1.000000000000000000, 0.000000000000000000, 4.158439820786446808E-16 ) ) ;
#270 = EDGE_CURVE ( 'NONE', #1181, #535, #786, .T. ) ;
#271 = ORIENTED_EDGE ( 'NONE', *, *, #266, .F. ) ;
#272 = PLANE ( 'NONE',  #590 ) ;
#273 = DIRECTION ( 'NONE',  ( 1.000000000000000000, 4.336808689942013792E-16, 0.000000000000000000 ) ) ;
#274 = VECTOR ( 'NONE', #691, 1000.000000000000114 ) ;
#275 = LINE ( 'NONE', #792, #1141 ) ;
#276 = VECTOR ( 'NONE', #457, 1000.000000000000000 ) ;
#277 = AXIS2_PLACEMENT_3D ( 'NONE', #492, #509, #401 ) ;
#278 = ORIENTED_EDGE ( 'NONE', *, *, #596, .T. ) ;
#279 = LINE ( 'NONE', #386, #1016 ) ;
#280 = DIRECTION ( 'NONE',  ( 4.336808689942007875E-16, -1.000000000000000000, 4.057416247971344741E-16 ) ) ;
#281 = ORIENTED_EDGE ( 'NONE', *, *, #144, .T. ) ;
#282 = EDGE_LOOP ( 'NONE', ( #869, #172, #248, #615 ) ) ;
#283 = ORIENTED_EDGE ( 'NONE', *, *, #652, .T. ) ;
#284 = CYLINDRICAL_SURFACE ( 'NONE', #20, 2.000000000000000000 ) ;
#285 = DIRECTION ( 'NONE',  ( 0.000000000000000000, 0.000000000000000000, -1.000000000000000000 ) ) ;
#286 = ADVANCED_FACE ( 'NONE', ( #972 ), #231, .F. ) ;
#287 = CARTESIAN_POINT ( 'NONE',  ( -14.94209489375280242, -0.3158646431937479626, 39.69841638342316514 ) ) ;
#288 = ORIENTED_EDGE ( 'NONE', *, *, #893, .F. ) ;
#289 = CARTESIAN_POINT ( 'NONE',  ( -15.52788133137972437, -0.3158646431937531251, 27.11262994579626451 ) ) ;
#290 = CARTESIAN_POINT ( 'NONE',  ( -13.52788133137972615, 0.6841353568062512602, 27.11262994579626451 ) ) ;
#291 = DIRECTION ( 'NONE',  ( -4.336808689942008368E-16, 1.000000000000000000, -4.057416247971344741E-16 ) ) ;
#292 = AXIS2_PLACEMENT_3D ( 'NONE', #378, #941, #212 ) ;
#293 = ADVANCED_FACE ( 'NONE', ( #795 ), #1133, .T. ) ;
#294 = CIRCLE ( 'NONE', #119, 1.999999999999998224 ) ;
#295 = ORIENTED_EDGE ( 'NONE', *, *, #144, .F. ) ;
#296 = DIRECTION ( 'NONE',  ( -1.000000000000000000, -4.336808689942017736E-16, 0.000000000000000000 ) ) ;
#297 = CARTESIAN_POINT ( 'NONE',  ( -20.52788133137972082, 1.284135356806247019, 32.28420282105007999 ) ) ;
#298 = VECTOR ( 'NONE', #830, 1000.000000000000000 ) ;
#299 = CARTESIAN_POINT ( 'NONE',  ( -26.11366776900661435, 0.6841353568062508161, 39.69841638342317225 ) ) ;
#300 = ORIENTED_EDGE ( 'NONE', *, *, #220, .F. ) ;
#301 = ADVANCED_FACE ( 'NONE', ( #874 ), #40, .T. ) ;
#302 = ORIENTED_EDGE ( 'NONE', *, *, #811, .T. ) ;
#303 = CARTESIAN_POINT ( 'NONE',  ( -16.35630845612590178, 0.6841353568062554791, 40.28420282105007288 ) ) ;
#304 = CARTESIAN_POINT ( 'NONE',  ( -27.52788133137972082, -0.3158646431937583432, 27.11262994579627161 ) ) ;
#305 = CARTESIAN_POINT ( 'NONE',  ( -13.52788133137972615, -0.3158646431937522925, 27.11262994579626451 ) ) ;
#306 = ORIENTED_EDGE ( 'NONE', *, *, #840, .F. ) ;
#307 = ORIENTED_EDGE ( 'NONE', *, *, #863, .T. ) ;
#308 = ADVANCED_FACE ( 'NONE', ( #32, #336 ), #682, .F. ) ;
#309 = DIRECTION ( 'NONE',  ( -4.336808689942008368E-16, 1.000000000000000000, -4.057416247971344741E-16 ) ) ;
#310 = EDGE_CURVE ( 'NONE', #533, #729, #986, .T. ) ;
#311 = LINE ( 'NONE', #127, #352 ) ;
#312 = CARTESIAN_POINT ( 'NONE',  ( -16.35630845612591600, 0.6841353568062505941, 24.28420282105007644 ) ) ;
#313 = ORIENTED_EDGE ( 'NONE', *, *, #1163, .T. ) ;
#314 = VECTOR ( 'NONE', #570, 1000.000000000000000 ) ;
#315 = EDGE_LOOP ( 'NONE', ( #267, #1160, #1142, #456 ) ) ;
#316 = CARTESIAN_POINT ( 'NONE',  ( -16.35630845612590178, -0.3158646431937490173, 38.28420282105007288 ) ) ;
#317 = AXIS2_PLACEMENT_3D ( 'NONE', #566, #280, #945 ) ;
#318 = DIRECTION ( 'NONE',  ( 1.000000000000000000, 4.293869990041610340E-16, 0.000000000000000000 ) ) ;
#319 = EDGE_CURVE ( 'NONE', #1203, #911, #221, .T. ) ;
#320 = DIRECTION ( 'NONE',  ( -0.000000000000000000, 1.000000000000000000, -0.000000000000000000 ) ) ;
#321 = VERTEX_POINT ( 'NONE', #1075 ) ;
#322 = CARTESIAN_POINT ( 'NONE',  ( -24.69945420663353630, -0.3158646431937575660, 26.28420282105007999 ) ) ;
#323 = DIRECTION ( 'NONE',  ( -4.336808689942007875E-16, 1.000000000000000000, -4.057416247971344741E-16 ) ) ;
#324 = DIRECTION ( 'NONE',  ( 1.000000000000000000, 4.336808689942004424E-16, -8.316879641572900519E-16 ) ) ;
#325 = EDGE_CURVE ( 'NONE', #729, #321, #740, .T. ) ;
#326 = ORIENTED_EDGE ( 'NONE', *, *, #435, .F. ) ;
#327 = LINE ( 'NONE', #1072, #897 ) ;
#328 = PLANE ( 'NONE',  #875 ) ;
#329 = CARTESIAN_POINT ( 'NONE',  ( -16.35630845612590178, -0.3158646431937486287, 39.28420282105007288 ) ) ;
#330 = ORIENTED_EDGE ( 'NONE', *, *, #864, .T. ) ;
#331 = FACE_OUTER_BOUND ( 'NONE', #163, .T. ) ;
#332 = VECTOR ( 'NONE', #480, 1000.000000000000000 ) ;
#333 = EDGE_LOOP ( 'NONE', ( #74, #849, #634, #1019 ) ) ;
#334 = LINE ( 'NONE', #965, #797 ) ;
#335 = AXIS2_PLACEMENT_3D ( 'NONE', #493, #1209, #285 ) ;
#336 = FACE_OUTER_BOUND ( 'NONE', #844, .T. ) ;
#337 = FACE_OUTER_BOUND ( 'NONE', #1170, .T. ) ;
#338 = EDGE_LOOP ( 'NONE', ( #751, #889, #1207, #1026 ) ) ;
#339 = EDGE_CURVE ( 'NONE', #68, #1134, #1057, .T. ) ;
#340 = ORIENTED_EDGE ( 'NONE', *, *, #220, .T. ) ;
#341 = FACE_OUTER_BOUND ( 'NONE', #597, .T. ) ;
#342 = DIRECTION ( 'NONE',  ( 0.000000000000000000, 0.000000000000000000, -1.000000000000000000 ) ) ;
#343 = ORIENTED_EDGE ( 'NONE', *, *, #560, .F. ) ;
#344 = EDGE_CURVE ( 'NONE', #374, #627, #991, .T. ) ;
#345 = VERTEX_POINT ( 'NONE', #978 ) ;
#346 = DIRECTION ( 'NONE',  ( -1.261258369324628969E-17, 0.7071067811865465735, 0.7071067811865484609 ) ) ;
#347 = DIRECTION ( 'NONE',  ( -0.7071067811865463515, 0.7071067811865487940, 0.000000000000000000 ) ) ;
#348 = DIRECTION ( 'NONE',  ( 0.000000000000000000, 1.000000000000000000, 0.000000000000000000 ) ) ;
#349 = DIRECTION ( 'NONE',  ( 0.000000000000000000, 0.000000000000000000, 1.000000000000000000 ) ) ;
#350 = ORIENTED_EDGE ( 'NONE', *, *, #821, .T. ) ;
#351 = CARTESIAN_POINT ( 'NONE',  ( -27.52788133137971371, 1.284135356806245909, 37.45577569630388837 ) ) ;
#352 = VECTOR ( 'NONE', #775, 1000.000000000000114 ) ;
#353 = CARTESIAN_POINT ( 'NONE',  ( -16.35630845612591244, 0.6841353568062501500, 26.28420282105007644 ) ) ;
#354 = EDGE_CURVE ( 'NONE', #810, #535, #140, .T. ) ;
#355 = AXIS2_PLACEMENT_3D ( 'NONE', #727, #1006, #643 ) ;
#356 = CARTESIAN_POINT ( 'NONE',  ( -13.52788133137972615, 1.284135356806247685, 27.11262994579626451 ) ) ;
#357 = AXIS2_PLACEMENT_3D ( 'NONE', #715, #67, #1087 ) ;
#358 = AXIS2_PLACEMENT_3D ( 'NONE', #91, #654, #1210 ) ;
#359 = EDGE_LOOP ( 'NONE', ( #81, #307, #782, #243 ) ) ;
#360 = CARTESIAN_POINT ( 'NONE',  ( -20.52788133137972082, -0.3158646431937532362, 32.28420282105007999 ) ) ;
#361 = ADVANCED_FACE ( 'NONE', ( #868 ), #790, .T. ) ;
#362 = ORIENTED_EDGE ( 'NONE', *, *, #846, .T. ) ;
#363 = ORIENTED_EDGE ( 'NONE', *, *, #86, .T. ) ;
#364 = CARTESIAN_POINT ( 'NONE',  ( -16.35630845612591600, 0.6841353568062492618, 24.28420282105007644 ) ) ;
#365 = CARTESIAN_POINT ( 'NONE',  ( -26.11366776900661435, 1.284135356806247463, 39.69841638342317225 ) ) ;
#366 = ORIENTED_EDGE ( 'NONE', *, *, #523, .F. ) ;
#367 = PRODUCT_DEFINITION ( 'UNKNOWN', '', #240, #106 ) ;
#368 = ORIENTED_EDGE ( 'NONE', *, *, #1030, .F. ) ;
#369 = DIRECTION ( 'NONE',  ( 1.000000000000000000, 4.336808689942021680E-16, 0.000000000000000000 ) ) ;
#370 = DIRECTION ( 'NONE',  ( 4.286036293534464861E-16, -1.000000000000000000, 4.060455435980019602E-16 ) ) ;
#371 = AXIS2_PLACEMENT_3D ( 'NONE', #707, #128, #517 ) ;
#372 = EDGE_LOOP ( 'NONE', ( #368, #650, #1121, #380 ) ) ;
#373 = AXIS2_PLACEMENT_3D ( 'NONE', #485, #930, #387 ) ;
#374 = VERTEX_POINT ( 'NONE', #237 ) ;
#375 = EDGE_CURVE ( 'NONE', #1086, #1172, #1158, .T. ) ;
#376 = LINE ( 'NONE', #303, #261 ) ;
#377 = FACE_OUTER_BOUND ( 'NONE', #213, .T. ) ;
#378 = CARTESIAN_POINT ( 'NONE',  ( -20.52788133137972082, -0.3158646431937533472, 32.28420282105007999 ) ) ;
#379 = EDGE_LOOP ( 'NONE', ( #649, #66, #207, #756, #288 ) ) ;
#380 = ORIENTED_EDGE ( 'NONE', *, *, #1066, .F. ) ;
#381 = CARTESIAN_POINT ( 'NONE',  ( -20.52788133137972082, 2.284135356806246797, 32.28420282105007999 ) ) ;
#382 = EDGE_CURVE ( 'NONE', #961, #677, #50, .T. ) ;
#383 = FACE_OUTER_BOUND ( 'NONE', #333, .T. ) ;
#384 = DIRECTION ( 'NONE',  ( 4.336808689942007875E-16, -1.000000000000000000, 4.057416247971344741E-16 ) ) ;
#385 = EDGE_LOOP ( 'NONE', ( #447, #1205, #954, #857 ) ) ;
#386 = CARTESIAN_POINT ( 'NONE',  ( -25.40656098782008243, -0.3158646431937581212, 25.57709603986354097 ) ) ;
#387 = DIRECTION ( 'NONE',  ( 0.000000000000000000, 0.000000000000000000, -1.000000000000000000 ) ) ;
#388 = CARTESIAN_POINT ( 'NONE',  ( -27.52788133137971371, -0.3158646431937542354, 37.45577569630388837 ) ) ;
#389 = EDGE_CURVE ( 'NONE', #627, #953, #1193, .T. ) ;
#390 = ORIENTED_EDGE ( 'NONE', *, *, #130, .F. ) ;
#391 = VECTOR ( 'NONE', #347, 999.9999999999998863 ) ;
#392 = CIRCLE ( 'NONE', #177, 5.349999999999996980 ) ;
#393 = VECTOR ( 'NONE', #845, 999.9999999999998863 ) ;
#394 = ORIENTED_EDGE ( 'NONE', *, *, #270, .F. ) ;
#395 = LINE ( 'NONE', #674, #630 ) ;
#396 = LINE ( 'NONE', #1044, #568 ) ;
#397 = DIRECTION ( 'NONE',  ( -4.336808689942008368E-16, 1.000000000000000000, -4.057416247971344741E-16 ) ) ;
#398 = ORIENTED_EDGE ( 'NONE', *, *, #472, .F. ) ;
#399 = ADVANCED_FACE ( 'NONE', ( #152 ), #522, .T. ) ;
#400 = ORIENTED_EDGE ( 'NONE', *, *, #45, .F. ) ;
#401 = DIRECTION ( 'NONE',  ( -1.000000000000000000, -4.336808689942021680E-16, 0.000000000000000000 ) ) ;
#402 = CARTESIAN_POINT ( 'NONE',  ( -15.64920167493935210, -0.3158646431937484622, 38.99130960223662612 ) ) ;
#403 = CARTESIAN_POINT ( 'NONE',  ( -25.87788133137971869, 1.284135356806244577, 32.28420282105007999 ) ) ;
#404 = ORIENTED_EDGE ( 'NONE', *, *, #680, .F. ) ;
#405 = DIRECTION ( 'NONE',  ( -4.336808689942008368E-16, 1.000000000000000000, -4.057416247971344741E-16 ) ) ;
#406 = EDGE_CURVE ( 'NONE', #527, #655, #999, .T. ) ;
#407 = LINE ( 'NONE', #510, #645 ) ;
#408 = DIRECTION ( 'NONE',  ( 4.336808689942006889E-16, -1.000000000000000000, 0.000000000000000000 ) ) ;
#409 = ORIENTED_EDGE ( 'NONE', *, *, #339, .T. ) ;
#410 = CIRCLE ( 'NONE', #934, 1.000000000000000888 ) ;
#411 = CIRCLE ( 'NONE', #373, 4.049999999999994493 ) ;
#412 = VERTEX_POINT ( 'NONE', #537 ) ;
#413 = PLANE ( 'NONE',  #1119 ) ;
#414 = CONICAL_SURFACE ( 'NONE', #899, 4.049999999999994493, 0.7853981633974476129 ) ;
#415 = EDGE_CURVE ( 'NONE', #935, #262, #159, .T. ) ;
#416 = FACE_OUTER_BOUND ( 'NONE', #482, .T. ) ;
#417 = DIRECTION ( 'NONE',  ( 1.000000000000000000, 4.336808689942007875E-16, 0.000000000000000000 ) ) ;
#418 = ORIENTED_EDGE ( 'NONE', *, *, #532, .F. ) ;
#419 = DIRECTION ( 'NONE',  ( 0.000000000000000000, 0.000000000000000000, -1.000000000000000000 ) ) ;
#420 = DIRECTION ( 'NONE',  ( 0.7071067811865461294, 5.935613376403758071E-16, 0.7071067811865489050 ) ) ;
#421 = DIRECTION ( 'NONE',  ( 4.336808689942007875E-16, -1.000000000000000000, 4.057416247971344741E-16 ) ) ;
#422 = DIRECTION ( 'NONE',  ( -0.7071067811865467956, -0.7071067811865483499, 0.000000000000000000 ) ) ;
#423 = CARTESIAN_POINT ( 'NONE',  ( -26.23498811256626340, -0.3158646431937533472, 38.16288247749043450 ) ) ;
#424 = LINE ( 'NONE', #64, #276 ) ;
#425 = DIRECTION ( 'NONE',  ( 3.469446951953617344E-15, 0.000000000000000000, -1.000000000000000000 ) ) ;
#426 = EDGE_CURVE ( 'NONE', #831, #761, #724, .T. ) ;
#427 = CARTESIAN_POINT ( 'NONE',  ( -14.52788133137971904, -0.3158646431937485732, 37.45577569630388837 ) ) ;
#428 = LINE ( 'NONE', #1095, #902 ) ;
#429 = ORIENTED_EDGE ( 'NONE', *, *, #652, .F. ) ;
#430 = AXIS2_PLACEMENT_3D ( 'NONE', #996, #1188, #1098 ) ;
#431 = ORIENTED_EDGE ( 'NONE', *, *, #1030, .T. ) ;
#432 = VECTOR ( 'NONE', #717, 1000.000000000000000 ) ;
#433 = AXIS2_PLACEMENT_3D ( 'NONE', #143, #229, #698 ) ;
#434 = CARTESIAN_POINT ( 'NONE',  ( -13.52788133137972437, 0.6841353568062512602, 27.11262994579626451 ) ) ;
#435 = EDGE_CURVE ( 'NONE', #617, #1067, #639, .T. ) ;
#436 = FACE_OUTER_BOUND ( 'NONE', #1196, .T. ) ;
#437 = VERTEX_POINT ( 'NONE', #542 ) ;
#438 = DIRECTION ( 'NONE',  ( 4.286036293534464861E-16, -1.000000000000000000, 4.060455435980019602E-16 ) ) ;
#439 = DIRECTION ( 'NONE',  ( 0.000000000000000000, 0.7071067811865489050, -0.7071067811865462405 ) ) ;
#440 = ORIENTED_EDGE ( 'NONE', *, *, #539, .F. ) ;
#441 = DIRECTION ( 'NONE',  ( 4.336808689942007875E-16, -1.000000000000000000, 4.057416247971344741E-16 ) ) ;
#442 = ORIENTED_EDGE ( 'NONE', *, *, #1099, .T. ) ;
#443 = EDGE_CURVE ( 'NONE', #135, #249, #809, .T. ) ;
#444 = LINE ( 'NONE', #528, #432 ) ;
#445 = PLANE ( 'NONE',  #256 ) ;
#446 = CARTESIAN_POINT ( 'NONE',  ( -24.69945420663352209, -0.3158646431937526811, 38.28420282105007999 ) ) ;
#447 = ORIENTED_EDGE ( 'NONE', *, *, #950, .T. ) ;
#448 = DIRECTION ( 'NONE',  ( -1.000000000000000000, -4.336808689942006396E-16, 4.158439820786448781E-16 ) ) ;
#449 = AXIS2_PLACEMENT_3D ( 'NONE', #887, #46, #146 ) ;
#450 = ADVANCED_FACE ( 'NONE', ( #636 ), #1157, .T. ) ;
#451 = VECTOR ( 'NONE', #505, 1000.000000000000000 ) ;
#452 = CARTESIAN_POINT ( 'NONE',  ( -24.69945420663352209, 1.284135356806248129, 40.28420282105007999 ) ) ;
#453 =( NAMED_UNIT ( * ) PLANE_ANGLE_UNIT ( ) SI_UNIT ( $, .RADIAN. ) );
#454 = ORIENTED_EDGE ( 'NONE', *, *, #702, .T. ) ;
#455 = VECTOR ( 'NONE', #804, 1000.000000000000114 ) ;
#456 = ORIENTED_EDGE ( 'NONE', *, *, #725, .F. ) ;
#457 = DIRECTION ( 'NONE',  ( 1.000000000000000000, 4.336808689942006396E-16, -4.158439820786448781E-16 ) ) ;
#458 = DIRECTION ( 'NONE',  ( 4.336808689942007875E-16, -1.000000000000000000, 4.057416247971344741E-16 ) ) ;
#459 = VERTEX_POINT ( 'NONE', #462 ) ;
#460 = ORIENTED_EDGE ( 'NONE', *, *, #325, .F. ) ;
#461 = DIRECTION ( 'NONE',  ( 0.7071067811865485719, -0.7071067811865465735, -1.874732320794135596E-16 ) ) ;
#462 = CARTESIAN_POINT ( 'NONE',  ( -14.94209489375281841, 1.284135356806246131, 24.86998925867697707 ) ) ;
#463 = LINE ( 'NONE', #154, #764 ) ;
#464 = ORIENTED_EDGE ( 'NONE', *, *, #1049, .F. ) ;
#465 = EDGE_CURVE ( 'NONE', #437, #935, #626, .T. ) ;
#466 = ORIENTED_EDGE ( 'NONE', *, *, #990, .T. ) ;
#467 = FACE_OUTER_BOUND ( 'NONE', #167, .T. ) ;
#468 = LINE ( 'NONE', #939, #79 ) ;
#469 = VECTOR ( 'NONE', #439, 1000.000000000000000 ) ;
#470 = DIRECTION ( 'NONE',  ( 0.000000000000000000, 0.000000000000000000, -1.000000000000000000 ) ) ;
#471 = AXIS2_PLACEMENT_3D ( 'NONE', #784, #694, #420 ) ;
#472 = EDGE_CURVE ( 'NONE', #1067, #1181, #235, .T. ) ;
#473 = ORIENTED_EDGE ( 'NONE', *, *, #1212, .F. ) ;
#474 = DIRECTION ( 'NONE',  ( 1.000000000000000000, 4.283267841918047918E-16, 0.000000000000000000 ) ) ;
#475 = CYLINDRICAL_SURFACE ( 'NONE', #629, 5.349999999999996980 ) ;
#476 = DIRECTION ( 'NONE',  ( 1.000000000000000000, 4.336808689942007875E-16, 0.000000000000000000 ) ) ;
#477 = ORIENTED_EDGE ( 'NONE', *, *, #382, .T. ) ;
#478 = FACE_OUTER_BOUND ( 'NONE', #705, .T. ) ;
#479 = EDGE_CURVE ( 'NONE', #953, #68, #1204, .T. ) ;
#480 = DIRECTION ( 'NONE',  ( -4.336808689942008368E-16, 1.000000000000000000, -4.057416247971344741E-16 ) ) ;
#481 = CARTESIAN_POINT ( 'NONE',  ( -14.11366776900661790, 0.6841353568062551460, 38.86998925867697352 ) ) ;
#482 = EDGE_LOOP ( 'NONE', ( #42, #129, #672, #464 ) ) ;
#483 = EDGE_LOOP ( 'NONE', ( #534, #898, #93, #33 ) ) ;
#484 = DIRECTION ( 'NONE',  ( -4.336808689942007875E-16, 1.000000000000000000, -4.057416247971344741E-16 ) ) ;
#485 = CARTESIAN_POINT ( 'NONE',  ( -20.52788133137972082, 0.6841353568062444879, 32.28420282105007999 ) ) ;
#486 = ADVANCED_FACE ( 'NONE', ( #824 ), #445, .T. ) ;
#487 = LINE ( 'NONE', #305, #1199 ) ;
#488 = VECTOR ( 'NONE', #1192, 999.9999999999998863 ) ;
#489 = AXIS2_PLACEMENT_3D ( 'NONE', #881, #599, #770 ) ;
#490 = VECTOR ( 'NONE', #204, 1000.000000000000114 ) ;
#491 = ORIENTED_EDGE ( 'NONE', *, *, #415, .T. ) ;
#492 = CARTESIAN_POINT ( 'NONE',  ( -25.52788133137971371, -0.3158646431937533472, 37.45577569630388837 ) ) ;
#493 = CARTESIAN_POINT ( 'NONE',  ( -20.52788133137972082, 0.6841353568062444879, 32.28420282105007999 ) ) ;
#494 = LINE ( 'NONE', #287, #922 ) ;
#495 = VERTEX_POINT ( 'NONE', #829 ) ;
#496 = PRODUCT_RELATED_PRODUCT_CATEGORY ( 'part', '', ( #1045 ) ) ;
#497 = ORIENTED_EDGE ( 'NONE', *, *, #1155, .F. ) ;
#498 = CYLINDRICAL_SURFACE ( 'NONE', #549, 2.000000000000001776 ) ;
#499 = FACE_OUTER_BOUND ( 'NONE', #981, .T. ) ;
#500 = DIRECTION ( 'NONE',  ( 4.336808689942007875E-16, -1.000000000000000000, 4.057416247971344741E-16 ) ) ;
#501 = VERTEX_POINT ( 'NONE', #365 ) ;
#502 = EDGE_CURVE ( 'NONE', #1132, #1181, #1093, .T. ) ;
#503 = ORIENTED_EDGE ( 'NONE', *, *, #227, .T. ) ;
#504 = CARTESIAN_POINT ( 'NONE',  ( -16.35630845612590178, 0.6841353568062553681, 40.28420282105007288 ) ) ;
#505 = DIRECTION ( 'NONE',  ( -4.336808689942008368E-16, 1.000000000000000000, -4.057416247971344741E-16 ) ) ;
#506 = CARTESIAN_POINT ( 'NONE',  ( -24.69945420663352209, 0.6841353568062512602, 38.28420282105007999 ) ) ;
#507 = VECTOR ( 'NONE', #175, 1000.000000000000114 ) ;
#508 = EDGE_LOOP ( 'NONE', ( #263, #562, #404, #974, #906 ) ) ;
#509 = DIRECTION ( 'NONE',  ( -4.336808689942008368E-16, 1.000000000000000000, -4.057416247971344741E-16 ) ) ;
#510 = CARTESIAN_POINT ( 'NONE',  ( -26.94209489375282018, -0.3158646431937585652, 25.69841638342317225 ) ) ;
#511 = CARTESIAN_POINT ( 'NONE',  ( -24.69945420663352209, -0.3158646431937518484, 40.28420282105007999 ) ) ;
#512 = VECTOR ( 'NONE', #884, 1000.000000000000114 ) ;
#513 = CARTESIAN_POINT ( 'NONE',  ( -26.11366776900661435, 0.6841353568062512602, 39.69841638342317225 ) ) ;
#514 = DIRECTION ( 'NONE',  ( 0.000000000000000000, 1.000000000000000000, 0.000000000000000000 ) ) ;
#515 = CARTESIAN_POINT ( 'NONE',  ( -25.40656098782006467, -0.3158646431937526811, 38.99130960223663322 ) ) ;
#516 = EDGE_CURVE ( 'NONE', #772, #722, #1115, .T. ) ;
#517 = DIRECTION ( 'NONE',  ( 0.000000000000000000, 0.000000000000000000, -1.000000000000000000 ) ) ;
#518 = CARTESIAN_POINT ( 'NONE',  ( -14.82077455019318357, -0.3158646431937531807, 26.40552316460971483 ) ) ;
#519 = CARTESIAN_POINT ( 'NONE',  ( -26.94209489375280242, 1.284135356806246797, 38.86998925867698063 ) ) ;
#520 = ORIENTED_EDGE ( 'NONE', *, *, #479, .F. ) ;
#521 = FACE_BOUND ( 'NONE', #168, .T. ) ;
#522 = CYLINDRICAL_SURFACE ( 'NONE', #834, 2.000000000000000000 ) ;
#523 = EDGE_CURVE ( 'NONE', #525, #729, #265, .T. ) ;
#524 = CARTESIAN_POINT ( 'NONE',  ( -25.52788133137972082, 0.6841353568062470414, 27.11262994579626806 ) ) ;
#525 = VERTEX_POINT ( 'NONE', #1007 ) ;
#526 = VECTOR ( 'NONE', #165, 1000.000000000000000 ) ;
#527 = VERTEX_POINT ( 'NONE', #921 ) ;
#528 = CARTESIAN_POINT ( 'NONE',  ( -26.52788133137971371, -0.3158646431937534027, 38.28420282105007288 ) ) ;
#529 = CIRCLE ( 'NONE', #1194, 2.000000000000000000 ) ;
#530 = VECTOR ( 'NONE', #1161, 1000.000000000000114 ) ;
#531 = CARTESIAN_POINT ( 'NONE',  ( -15.64920167493934500, -0.3158646431937484622, 38.99130960223661901 ) ) ;
#532 = EDGE_CURVE ( 'NONE', #648, #831, #1074, .T. ) ;
#533 = VERTEX_POINT ( 'NONE', #1003 ) ;
#534 = ORIENTED_EDGE ( 'NONE', *, *, #99, .T. ) ;
#535 = VERTEX_POINT ( 'NONE', #452 ) ;
#536 = DIRECTION ( 'NONE',  ( -1.000000000000000000, -4.336808689942021680E-16, 0.000000000000000000 ) ) ;
#537 = CARTESIAN_POINT ( 'NONE',  ( -16.35630845612590178, -0.3158646431937486287, 39.28420282105007288 ) ) ;
#538 = ORIENTED_EDGE ( 'NONE', *, *, #232, .F. ) ;
#539 = EDGE_CURVE ( 'NONE', #812, #608, #1154, .T. ) ;
#540 = ORIENTED_EDGE ( 'NONE', *, *, #1092, .T. ) ;
#541 = SURFACE_STYLE_USAGE ( .BOTH. , #1182 ) ;
#542 = CARTESIAN_POINT ( 'NONE',  ( -15.17788133137972295, 2.284135356806249018, 32.28420282105007999 ) ) ;
#543 = ORIENTED_EDGE ( 'NONE', *, *, #560, .T. ) ;
#544 = CARTESIAN_POINT ( 'NONE',  ( -15.52788133137971727, 0.6841353568062544799, 37.45577569630388837 ) ) ;
#545 = AXIS2_PLACEMENT_3D ( 'NONE', #925, #675, #110 ) ;
#546 = AXIS2_PLACEMENT_3D ( 'NONE', #748, #758, #121 ) ;
#547 = DIRECTION ( 'NONE',  ( -1.000000000000000000, -4.336808689942017736E-16, 0.000000000000000000 ) ) ;
#548 = CONICAL_SURFACE ( 'NONE', #856, 1.000000000000000888, 0.7853981633974477239 ) ;
#549 = AXIS2_PLACEMENT_3D ( 'NONE', #316, #405, #48 ) ;
#550 = VECTOR ( 'NONE', #1094, 1000.000000000000000 ) ;
#551 = ORIENTED_EDGE ( 'NONE', *, *, #998, .T. ) ;
#552 = DIRECTION ( 'NONE',  ( -4.336808689942008368E-16, 1.000000000000000000, -4.057416247971344741E-16 ) ) ;
#553 = DIRECTION ( 'NONE',  ( -4.158439820786446808E-16, -4.057416247971346713E-16, -1.000000000000000000 ) ) ;
#554 = ADVANCED_FACE ( 'NONE', ( #646 ), #728, .T. ) ;
#555 = CARTESIAN_POINT ( 'NONE',  ( -20.52788133137972082, 0.6841353568062444879, 32.28420282105007999 ) ) ;
#556 = ORIENTED_EDGE ( 'NONE', *, *, #821, .F. ) ;
#557 = EDGE_LOOP ( 'NONE', ( #1185, #969, #1165, #418 ) ) ;
#558 = DIRECTION ( 'NONE',  ( -6.708688121857586487E-16, -4.057416247971347699E-16, -1.000000000000000000 ) ) ;
#559 = CARTESIAN_POINT ( 'NONE',  ( -20.52788133137972082, 2.284135356806246797, 32.28420282105007999 ) ) ;
#560 = EDGE_CURVE ( 'NONE', #203, #125, #776, .T. ) ;
#561 = LINE ( 'NONE', #57, #158 ) ;
#562 = ORIENTED_EDGE ( 'NONE', *, *, #406, .F. ) ;
#563 = ORIENTED_EDGE ( 'NONE', *, *, #389, .T. ) ;
#564 = ORIENTED_EDGE ( 'NONE', *, *, #389, .F. ) ;
#565 = DIRECTION ( 'NONE',  ( 4.336808689942007875E-16, -1.000000000000000000, 4.057416247971344741E-16 ) ) ;
#566 = CARTESIAN_POINT ( 'NONE',  ( -16.35630845612591244, -0.3158646431937539023, 26.28420282105007644 ) ) ;
#567 = AXIS2_PLACEMENT_3D ( 'NONE', #506, #320, #1183 ) ;
#568 = VECTOR ( 'NONE', #1029, 1000.000000000000000 ) ;
#569 = APPLICATION_CONTEXT ( 'automotive_design' ) ;
#570 = DIRECTION ( 'NONE',  ( -4.336808689942008368E-16, 1.000000000000000000, -4.057416247971344741E-16 ) ) ;
#571 = ORIENTED_EDGE ( 'NONE', *, *, #767, .T. ) ;
#572 = CIRCLE ( 'NONE', #723, 1.999999999999998224 ) ;
#573 = UNCERTAINTY_MEASURE_WITH_UNIT (LENGTH_MEASURE( 1.000000000000000082E-05 ), #148, 'distance_accuracy_value', 'NONE');
#574 = ADVANCED_FACE ( 'NONE', ( #383 ), #1129, .F. ) ;
#575 = ORIENTED_EDGE ( 'NONE', *, *, #785, .F. ) ;
#576 = PLANE ( 'NONE',  #103 ) ;
#577 = DIRECTION ( 'NONE',  ( 4.336808689942007875E-16, -1.000000000000000000, 4.057416247971344741E-16 ) ) ;
#578 = LINE ( 'NONE', #481, #214 ) ;
#579 = VERTEX_POINT ( 'NONE', #742 ) ;
#580 = ADVANCED_FACE ( 'NONE', ( #1120 ), #475, .T. ) ;
#581 = CARTESIAN_POINT ( 'NONE',  ( -14.11366776900663211, 1.284135356806247019, 25.69841638342316870 ) ) ;
#582 = FACE_OUTER_BOUND ( 'NONE', #932, .T. ) ;
#583 = DIRECTION ( 'NONE',  ( 4.286036293534464861E-16, -1.000000000000000000, 4.060455435980019602E-16 ) ) ;
#584 = VERTEX_POINT ( 'NONE', #765 ) ;
#585 = ORIENTED_EDGE ( 'NONE', *, *, #725, .T. ) ;
#586 = DIRECTION ( 'NONE',  ( -1.000000000000000000, -4.336808689942013792E-16, 0.000000000000000000 ) ) ;
#587 = CARTESIAN_POINT ( 'NONE',  ( -16.47788133137972721, -0.3158646431937516263, 32.28420282105007999 ) ) ;
#588 = DIRECTION ( 'NONE',  ( -1.000000000000000000, -4.283267841918047918E-16, 0.000000000000000000 ) ) ;
#589 = AXIS2_PLACEMENT_3D ( 'NONE', #1198, #458, #170 ) ;
#590 = AXIS2_PLACEMENT_3D ( 'NONE', #900, #438, #83 ) ;
#591 = AXIS2_PLACEMENT_3D ( 'NONE', #322, #514, #693 ) ;
#592 = VERTEX_POINT ( 'NONE', #1138 ) ;
#593 = CARTESIAN_POINT ( 'NONE',  ( -14.52788133137972437, -0.3158646431937527921, 27.11262994579626451 ) ) ;
#594 = DIRECTION ( 'NONE',  ( -4.336808689942008368E-16, 1.000000000000000000, -4.057416247971344741E-16 ) ) ;
#595 = DIRECTION ( 'NONE',  ( 0.7071067811865444641, 5.935613376403757085E-16, 0.7071067811865505703 ) ) ;
#596 = EDGE_CURVE ( 'NONE', #533, #125, #842, .T. ) ;
#597 = EDGE_LOOP ( 'NONE', ( #692, #306, #735, #150 ) ) ;
#598 = DIRECTION ( 'NONE',  ( 4.336808689942007875E-16, -1.000000000000000000, 4.057416247971344741E-16 ) ) ;
#599 = DIRECTION ( 'NONE',  ( -4.336808689942008368E-16, 1.000000000000000000, -4.057416247971344741E-16 ) ) ;
#600 = CARTESIAN_POINT ( 'NONE',  ( -15.52788133137972437, 0.6841353568062503721, 27.11262994579626451 ) ) ;
#601 = ADVANCED_FACE ( 'NONE', ( #582 ), #851, .F. ) ;
#602 = ORIENTED_EDGE ( 'NONE', *, *, #950, .F. ) ;
#603 = FACE_OUTER_BOUND ( 'NONE', #185, .T. ) ;
#604 = DIRECTION ( 'NONE',  ( -0.7071067811865461294, -5.552546642481571304E-16, -0.7071067811865489050 ) ) ;
#605 = DIRECTION ( 'NONE',  ( 1.000000000000000000, 4.336808689942028583E-16, 0.000000000000000000 ) ) ;
#606 = VECTOR ( 'NONE', #22, 1000.000000000000000 ) ;
#607 = AXIS2_PLACEMENT_3D ( 'NONE', #544, #1091, #995 ) ;
#608 = VERTEX_POINT ( 'NONE', #8 ) ;
#609 = LINE ( 'NONE', #126, #59 ) ;
#610 = EDGE_CURVE ( 'NONE', #345, #677, #1077, .T. ) ;
#611 = CARTESIAN_POINT ( 'NONE',  ( -14.94209489375281841, -0.3158646431937540133, 24.86998925867697707 ) ) ;
#612 = DIRECTION ( 'NONE',  ( 0.000000000000000000, 1.000000000000000000, 0.000000000000000000 ) ) ;
#613 = VECTOR ( 'NONE', #422, 1000.000000000000000 ) ;
#614 = FACE_OUTER_BOUND ( 'NONE', #908, .T. ) ;
#615 = ORIENTED_EDGE ( 'NONE', *, *, #872, .F. ) ;
#616 = EDGE_CURVE ( 'NONE', #584, #262, #392, .T. ) ;
#617 = VERTEX_POINT ( 'NONE', #753 ) ;
#618 = CARTESIAN_POINT ( 'NONE',  ( -20.52788133137972082, -0.3158646431937532362, 32.28420282105007999 ) ) ;
#619 = CARTESIAN_POINT ( 'NONE',  ( -27.52788133137972082, -0.3158646431937583432, 27.11262994579627161 ) ) ;
#620 = LINE ( 'NONE', #926, #613 ) ;
#621 = APPLICATION_PROTOCOL_DEFINITION ( 'draft international standard', 'automotive_design', 1998, #569 ) ;
#622 = VERTEX_POINT ( 'NONE', #956 ) ;
#623 =( NAMED_UNIT ( * ) PLANE_ANGLE_UNIT ( ) SI_UNIT ( $, .RADIAN. ) );
#624 = CARTESIAN_POINT ( 'NONE',  ( -14.11366776900663034, 0.6841353568062503721, 25.69841638342316870 ) ) ;
#625 = LINE ( 'NONE', #888, #455 ) ;
#626 = CIRCLE ( 'NONE', #957, 5.349999999999996980 ) ;
#627 = VERTEX_POINT ( 'NONE', #290 ) ;
#628 = CARTESIAN_POINT ( 'NONE',  ( -13.52788133137971727, 1.284135356806251904, 37.45577569630388837 ) ) ;
#629 = AXIS2_PLACEMENT_3D ( 'NONE', #559, #104, #951 ) ;
#630 = VECTOR ( 'NONE', #1118, 999.9999999999998863 ) ;
#631 = CARTESIAN_POINT ( 'NONE',  ( -14.11366776900661613, 1.284135356806252348, 38.86998925867697352 ) ) ;
#632 = EDGE_CURVE ( 'NONE', #761, #249, #396, .T. ) ;
#633 = ORIENTED_EDGE ( 'NONE', *, *, #108, .T. ) ;
#634 = ORIENTED_EDGE ( 'NONE', *, *, #153, .T. ) ;
#635 =( NAMED_UNIT ( * ) SI_UNIT ( $, .STERADIAN. ) SOLID_ANGLE_UNIT ( ) );
#636 = FACE_OUTER_BOUND ( 'NONE', #1122, .T. ) ;
#637 =( NAMED_UNIT ( * ) SI_UNIT ( $, .STERADIAN. ) SOLID_ANGLE_UNIT ( ) );
#638 = ORIENTED_EDGE ( 'NONE', *, *, #739, .F. ) ;
#639 = LINE ( 'NONE', #631, #488 ) ;
#640 = EDGE_LOOP ( 'NONE', ( #503, #191, #52, #300 ) ) ;
#641 = VERTEX_POINT ( 'NONE', #653 ) ;
#642 = EDGE_CURVE ( 'NONE', #495, #622, #836, .T. ) ;
#643 = DIRECTION ( 'NONE',  ( 0.000000000000000000, 0.000000000000000000, 1.000000000000000000 ) ) ;
#644 = VECTOR ( 'NONE', #1175, 1000.000000000000000 ) ;
#645 = VECTOR ( 'NONE', #594, 1000.000000000000000 ) ;
#646 = FACE_OUTER_BOUND ( 'NONE', #778, .T. ) ;
#647 = VECTOR ( 'NONE', #552, 1000.000000000000000 ) ;
#648 = VERTEX_POINT ( 'NONE', #662 ) ;
#649 = ORIENTED_EDGE ( 'NONE', *, *, #28, .T. ) ;
#650 = ORIENTED_EDGE ( 'NONE', *, *, #1212, .T. ) ;
#651 = DIRECTION ( 'NONE',  ( -0.5000000000000011102, 0.7071067811865474617, -0.4999999999999987232 ) ) ;
#652 = EDGE_CURVE ( 'NONE', #592, #223, #217, .T. ) ;
#653 = CARTESIAN_POINT ( 'NONE',  ( -26.11366776900663211, 0.6841353568062460422, 24.86998925867699128 ) ) ;
#654 = DIRECTION ( 'NONE',  ( -0.5000000000000034417, 0.7071067811865461294, 0.4999999999999985567 ) ) ;
#655 = VERTEX_POINT ( 'NONE', #847 ) ;
#656 = FACE_OUTER_BOUND ( 'NONE', #483, .T. ) ;
#657 = CARTESIAN_POINT ( 'NONE',  ( -26.11366776900663211, 1.284135356806241246, 24.86998925867699128 ) ) ;
#658 = FACE_OUTER_BOUND ( 'NONE', #149, .T. ) ;
#659 = EDGE_CURVE ( 'NONE', #961, #617, #468, .T. ) ;
#660 = ORIENTED_EDGE ( 'NONE', *, *, #532, .T. ) ;
#661 = PLANE ( 'NONE',  #178 ) ;
#662 = CARTESIAN_POINT ( 'NONE',  ( -25.40656098782008243, -0.3158646431937581212, 25.57709603986354097 ) ) ;
#663 = VECTOR ( 'NONE', #182, 1000.000000000000000 ) ;
#664 =( GEOMETRIC_REPRESENTATION_CONTEXT ( 3 ) GLOBAL_UNCERTAINTY_ASSIGNED_CONTEXT ( ( #750 ) ) GLOBAL_UNIT_ASSIGNED_CONTEXT ( ( #264, #623, #635 ) ) REPRESENTATION_CONTEXT ( 'NONE', 'WORKASPACE' ) );
#665 = FACE_OUTER_BOUND ( 'NONE', #379, .T. ) ;
#666 = EDGE_CURVE ( 'NONE', #527, #622, #12, .T. ) ;
#667 = ORIENTED_EDGE ( 'NONE', *, *, #86, .F. ) ;
#668 = CARTESIAN_POINT ( 'NONE',  ( -24.69945420663353630, 0.6841353568062468193, 26.28420282105007999 ) ) ;
#669 = AXIS2_PLACEMENT_3D ( 'NONE', #1052, #96, #470 ) ;
#670 = DIRECTION ( 'NONE',  ( 1.000000000000000000, 4.336808689942021680E-16, 0.000000000000000000 ) ) ;
#671 = DIRECTION ( 'NONE',  ( 0.000000000000000000, -1.000000000000000000, 0.000000000000000000 ) ) ;
#672 = ORIENTED_EDGE ( 'NONE', *, *, #973, .F. ) ;
#673 = ORIENTED_EDGE ( 'NONE', *, *, #479, .T. ) ;
#674 = CARTESIAN_POINT ( 'NONE',  ( -26.52788133137971727, -0.3158646431937579546, 27.11262994579626806 ) ) ;
#675 = DIRECTION ( 'NONE',  ( -4.336808689942007875E-16, 1.000000000000000000, -4.057416247971344741E-16 ) ) ;
#676 = CARTESIAN_POINT ( 'NONE',  ( -20.52788133137972082, 2.284135356806246797, 32.28420282105007999 ) ) ;
#677 = VERTEX_POINT ( 'NONE', #1 ) ;
#678 = EDGE_LOOP ( 'NONE', ( #787, #97, #4, #1103, #75 ) ) ;
#679 = FACE_OUTER_BOUND ( 'NONE', #557, .T. ) ;
#680 = EDGE_CURVE ( 'NONE', #579, #527, #411, .T. ) ;
#681 = CARTESIAN_POINT ( 'NONE',  ( -24.69945420663352209, 0.6841353568062518153, 40.28420282105007999 ) ) ;
#682 = PLANE ( 'NONE',  #796 ) ;
#683 = AXIS2_PLACEMENT_3D ( 'NONE', #1070, #500, #605 ) ;
#684 = CIRCLE ( 'NONE', #607, 2.000000000000001776 ) ;
#685 = AXIS2_PLACEMENT_3D ( 'NONE', #30, #1166, #43 ) ;
#686 = ORIENTED_EDGE ( 'NONE', *, *, #1004, .T. ) ;
#687 = CARTESIAN_POINT ( 'NONE',  ( -26.94209489375280242, -0.3158646431937533472, 38.86998925867698063 ) ) ;
#688 = AXIS2_PLACEMENT_3D ( 'NONE', #446, #441, #247 ) ;
#689 = CARTESIAN_POINT ( 'NONE',  ( -24.69945420663353985, 0.6841353568062468193, 24.28420282105007999 ) ) ;
#690 = ADVANCED_FACE ( 'NONE', ( #377 ), #1125, .T. ) ;
#691 = DIRECTION ( 'NONE',  ( -0.7071067811865461294, -5.935613376403757085E-16, -0.7071067811865489050 ) ) ;
#692 = ORIENTED_EDGE ( 'NONE', *, *, #251, .T. ) ;
#693 = DIRECTION ( 'NONE',  ( 0.000000000000000000, 0.000000000000000000, 1.000000000000000000 ) ) ;
#694 = DIRECTION ( 'NONE',  ( -0.5000000000000026645, -0.7071067811865446862, 0.5000000000000013323 ) ) ;
#695 = DIRECTION ( 'NONE',  ( 3.354344060928796202E-16, 4.057416247971346220E-16, 1.000000000000000000 ) ) ;
#696 = EDGE_CURVE ( 'NONE', #655, #87, #916, .T. ) ;
#697 = VERTEX_POINT ( 'NONE', #657 ) ;
#698 = DIRECTION ( 'NONE',  ( 1.000000000000000000, 4.336808689942021680E-16, 0.000000000000000000 ) ) ;
#699 = CARTESIAN_POINT ( 'NONE',  ( -14.94209489375281841, 0.6841353568062499280, 24.86998925867697707 ) ) ;
#700 = DIRECTION ( 'NONE',  ( 6.708688121857586487E-16, 3.983283572352941792E-16, 1.000000000000000000 ) ) ;
#701 = VECTOR ( 'NONE', #111, 999.9999999999998863 ) ;
#702 = EDGE_CURVE ( 'NONE', #437, #584, #334, .T. ) ;
#703 = PLANE ( 'NONE',  #983 ) ;
#704 = AXIS2_PLACEMENT_3D ( 'NONE', #668, #929, #94 ) ;
#705 = EDGE_LOOP ( 'NONE', ( #208, #563, #967, #1202 ) ) ;
#706 = DIRECTION ( 'NONE',  ( 3.354344060928796695E-16, 3.983283572352946229E-16, 1.000000000000000000 ) ) ;
#707 = CARTESIAN_POINT ( 'NONE',  ( -25.52788133137971371, 0.6841353568062503721, 37.45577569630388837 ) ) ;
#708 = CIRCLE ( 'NONE', #669, 2.000000000000001776 ) ;
#709 = CARTESIAN_POINT ( 'NONE',  ( -24.57788133137971442, 0.6841353568062444879, 32.28420282105007999 ) ) ;
#710 = ORIENTED_EDGE ( 'NONE', *, *, #1092, .F. ) ;
#711 = ORIENTED_EDGE ( 'NONE', *, *, #270, .T. ) ;
#712 = CARTESIAN_POINT ( 'NONE',  ( -26.94209489375282018, 0.6841353568062470414, 25.69841638342317225 ) ) ;
#713 = DIRECTION ( 'NONE',  ( -4.336808689942007875E-16, 1.000000000000000000, -4.057416247971344741E-16 ) ) ;
#714 = LINE ( 'NONE', #427, #550 ) ;
#715 = CARTESIAN_POINT ( 'NONE',  ( -24.69945420663352209, 0.6841353568062508161, 38.28420282105007999 ) ) ;
#716 = EDGE_LOOP ( 'NONE', ( #1111, #117 ) ) ;
#717 = DIRECTION ( 'NONE',  ( -3.354344060928796202E-16, -4.057416247971346220E-16, -1.000000000000000000 ) ) ;
#718 = EDGE_CURVE ( 'NONE', #677, #832, #873, .T. ) ;
#719 = DIRECTION ( 'NONE',  ( 4.336808689942007875E-16, -1.000000000000000000, 4.057416247971344741E-16 ) ) ;
#720 = VECTOR ( 'NONE', #1168, 1000.000000000000000 ) ;
#721 = MECHANICAL_DESIGN_GEOMETRIC_PRESENTATION_REPRESENTATION (  '', ( #980 ), #664 ) ;
#722 = VERTEX_POINT ( 'NONE', #1162 ) ;
#723 = AXIS2_PLACEMENT_3D ( 'NONE', #828, #565, #369 ) ;
#724 = LINE ( 'NONE', #1011, #469 ) ;
#725 = EDGE_CURVE ( 'NONE', #125, #923, #1064, .T. ) ;
#726 = ORIENTED_EDGE ( 'NONE', *, *, #767, .F. ) ;
#727 = CARTESIAN_POINT ( 'NONE',  ( -15.52788133137972437, -0.3158646431937531807, 27.11262994579626451 ) ) ;
#728 = PLANE ( 'NONE',  #816 ) ;
#729 = VERTEX_POINT ( 'NONE', #1167 ) ;
#730 = EDGE_CURVE ( 'NONE', #855, #203, #407, .T. ) ;
#731 = ORIENTED_EDGE ( 'NONE', *, *, #1089, .F. ) ;
#732 = FACE_OUTER_BOUND ( 'NONE', #823, .T. ) ;
#733 = DIRECTION ( 'NONE',  ( 1.000000000000000000, 4.293869990041610340E-16, 0.000000000000000000 ) ) ;
#734 = CARTESIAN_POINT ( 'NONE',  ( -20.52788133137972082, 0.6841353568062444879, 28.23420282105008638 ) ) ;
#735 = ORIENTED_EDGE ( 'NONE', *, *, #426, .T. ) ;
#736 = ADVANCED_FACE ( 'NONE', ( #416 ), #328, .F. ) ;
#737 = ORIENTED_EDGE ( 'NONE', *, *, #319, .F. ) ;
#738 = DIRECTION ( 'NONE',  ( -0.7071067811865439090, 0.000000000000000000, 0.7071067811865512365 ) ) ;
#739 = EDGE_CURVE ( 'NONE', #608, #855, #311, .T. ) ;
#740 = CIRCLE ( 'NONE', #371, 2.000000000000001776 ) ;
#741 = VECTOR ( 'NONE', #26, 1000.000000000000114 ) ;
#742 = CARTESIAN_POINT ( 'NONE',  ( -20.52788133137972082, 0.6841353568062444879, 28.23420282105008638 ) ) ;
#743 = VECTOR ( 'NONE', #1028, 1000.000000000000114 ) ;
#744 = CARTESIAN_POINT ( 'NONE',  ( -27.52788133137972082, 1.284135356806241690, 27.11262994579627161 ) ) ;
#745 = VERTEX_POINT ( 'NONE', #699 ) ;
#746 = DIRECTION ( 'NONE',  ( 0.000000000000000000, 0.000000000000000000, 1.000000000000000000 ) ) ;
#747 = ADVANCED_FACE ( 'NONE', ( #499 ), #984, .T. ) ;
#748 = CARTESIAN_POINT ( 'NONE',  ( -20.52788133137972082, 2.284135356806246797, 32.28420282105007999 ) ) ;
#749 = CARTESIAN_POINT ( 'NONE',  ( -25.52788133137971371, -0.3158646431937533472, 37.45577569630388837 ) ) ;
#750 = UNCERTAINTY_MEASURE_WITH_UNIT (LENGTH_MEASURE( 1.000000000000000082E-05 ), #264, 'distance_accuracy_value', 'NONE');
#751 = ORIENTED_EDGE ( 'NONE', *, *, #502, .F. ) ;
#752 = DIRECTION ( 'NONE',  ( 0.000000000000000000, 1.000000000000000000, 0.000000000000000000 ) ) ;
#753 = CARTESIAN_POINT ( 'NONE',  ( -14.11366776900661613, 1.284135356806252126, 38.86998925867697352 ) ) ;
#754 = EDGE_CURVE ( 'NONE', #722, #772, #1058, .T. ) ;
#755 = CARTESIAN_POINT ( 'NONE',  ( -20.52788133137972082, -0.3158646431937533472, 32.28420282105007999 ) ) ;
#756 = ORIENTED_EDGE ( 'NONE', *, *, #642, .F. ) ;
#757 = CARTESIAN_POINT ( 'NONE',  ( -14.94209489375280242, 0.6841353568062547019, 39.69841638342316514 ) ) ;
#758 = DIRECTION ( 'NONE',  ( 4.336808689942007875E-16, -1.000000000000000000, 4.057416247971344741E-16 ) ) ;
#759 = AXIS2_PLACEMENT_3D ( 'NONE', #1018, #820, #342 ) ;
#760 = LINE ( 'NONE', #312, #606 ) ;
#761 = VERTEX_POINT ( 'NONE', #689 ) ;
#762 = CIRCLE ( 'NONE', #858, 4.049999999999994493 ) ;
#763 = CARTESIAN_POINT ( 'NONE',  ( -13.52788133137972437, 0.6841353568062512602, 27.11262994579626451 ) ) ;
#764 = VECTOR ( 'NONE', #1114, 1000.000000000000114 ) ;
#765 = CARTESIAN_POINT ( 'NONE',  ( -15.17788133137972295, 1.284135356806249240, 32.28420282105007999 ) ) ;
#766 = FACE_OUTER_BOUND ( 'NONE', #372, .T. ) ;
#767 = EDGE_CURVE ( 'NONE', #1172, #321, #145, .T. ) ;
#768 = ORIENTED_EDGE ( 'NONE', *, *, #435, .T. ) ;
#769 = CARTESIAN_POINT ( 'NONE',  ( -14.11366776900663211, 1.284135356806247019, 25.69841638342316870 ) ) ;
#770 = DIRECTION ( 'NONE',  ( -1.000000000000000000, -4.336808689942021680E-16, 0.000000000000000000 ) ) ;
#771 = DIRECTION ( 'NONE',  ( 0.000000000000000000, 0.000000000000000000, 1.000000000000000000 ) ) ;
#772 = VERTEX_POINT ( 'NONE', #44 ) ;
#773 = EDGE_CURVE ( 'NONE', #262, #584, #780, .T. ) ;
#774 = CARTESIAN_POINT ( 'NONE',  ( -16.35630845612590178, -0.3158646431937490173, 38.28420282105007288 ) ) ;
#775 = DIRECTION ( 'NONE',  ( -0.4999999999999965583, 0.7071067811865489050, -0.5000000000000014433 ) ) ;
#776 = CIRCLE ( 'NONE', #545, 2.000000000000001776 ) ;
#777 = CARTESIAN_POINT ( 'NONE',  ( -27.52788133137972082, 0.6841353568062460422, 27.11262994579627161 ) ) ;
#778 = EDGE_LOOP ( 'NONE', ( #400, #1012, #947, #199 ) ) ;
#779 = AXIS2_PLACEMENT_3D ( 'NONE', #1023, #115, #21 ) ;
#780 = CIRCLE ( 'NONE', #39, 5.349999999999996980 ) ;
#781 = CIRCLE ( 'NONE', #704, 2.000000000000001776 ) ;
#782 = ORIENTED_EDGE ( 'NONE', *, *, #912, .T. ) ;
#783 = CARTESIAN_POINT ( 'NONE',  ( -14.94209489375280242, 1.284135356806252126, 39.69841638342316514 ) ) ;
#784 = CARTESIAN_POINT ( 'NONE',  ( -21.23498811256628116, -0.3158646431937491839, 43.16288247749043450 ) ) ;
#785 = EDGE_CURVE ( 'NONE', #1086, #257, #230, .T. ) ;
#786 = LINE ( 'NONE', #134, #644 ) ;
#787 = ORIENTED_EDGE ( 'NONE', *, *, #666, .F. ) ;
#788 = DIRECTION ( 'NONE',  ( 0.7071067811865505703, 1.975602903297501906E-17, -0.7071067811865444641 ) ) ;
#789 = CARTESIAN_POINT ( 'NONE',  ( -24.69945420663353985, -0.3158646431937578991, 25.28420282105007999 ) ) ;
#790 = PLANE ( 'NONE',  #78 ) ;
#791 = EDGE_CURVE ( 'NONE', #501, #1200, #886, .T. ) ;
#792 = CARTESIAN_POINT ( 'NONE',  ( -16.35630845612591600, 0.6841353568062497059, 24.28420282105007644 ) ) ;
#793 = DIRECTION ( 'NONE',  ( 0.000000000000000000, -1.000000000000000000, 0.000000000000000000 ) ) ;
#794 = DIRECTION ( 'NONE',  ( 4.336808689942007875E-16, -1.000000000000000000, 4.057416247971344741E-16 ) ) ;
#795 = FACE_OUTER_BOUND ( 'NONE', #155, .T. ) ;
#796 = AXIS2_PLACEMENT_3D ( 'NONE', #1164, #421, #417 ) ;
#797 = VECTOR ( 'NONE', #133, 1000.000000000000000 ) ;
#798 = ORIENTED_EDGE ( 'NONE', *, *, #864, .F. ) ;
#799 = APPLICATION_PROTOCOL_DEFINITION ( 'draft international standard', 'automotive_design', 1998, #903 ) ;
#800 = AXIS2_PLACEMENT_3D ( 'NONE', #234, #1147, #859 ) ;
#801 = ORIENTED_EDGE ( 'NONE', *, *, #266, .T. ) ;
#802 = SURFACE_STYLE_FILL_AREA ( #174 ) ;
#803 = DIRECTION ( 'NONE',  ( -1.000000000000000000, -4.336808689942006889E-16, 3.354344060928798174E-16 ) ) ;
#804 = DIRECTION ( 'NONE',  ( -0.4999999999999993339, -0.7071067811865483499, 0.4999999999999993339 ) ) ;
#805 = SHAPE_DEFINITION_REPRESENTATION ( #36, #815 ) ;
#806 = EDGE_CURVE ( 'NONE', #617, #911, #529, .T. ) ;
#807 = ORIENTED_EDGE ( 'NONE', *, *, #702, .F. ) ;
#808 = LINE ( 'NONE', #1104, #58 ) ;
#809 = LINE ( 'NONE', #259, #195 ) ;
#810 = VERTEX_POINT ( 'NONE', #681 ) ;
#811 = EDGE_CURVE ( 'NONE', #1200, #923, #937, .T. ) ;
#812 = VERTEX_POINT ( 'NONE', #1149 ) ;
#813 = DIRECTION ( 'NONE',  ( -4.336808689942008368E-16, 1.000000000000000000, -4.057416247971344741E-16 ) ) ;
#814 = CARTESIAN_POINT ( 'NONE',  ( -20.52788133137972082, 2.284135356806246797, 32.28420282105007999 ) ) ;
#815 = ADVANCED_BREP_SHAPE_REPRESENTATION ( '\X2\04200430043c043a0430\X0\_\X2\0421043204350442043e04340438043e04340430\X0\', ( #835, #1039 ), #2 ) ;
#816 = AXIS2_PLACEMENT_3D ( 'NONE', #1110, #553, #269 ) ;
#817 = VECTOR ( 'NONE', #1069, 1000.000000000000114 ) ;
#818 = ORIENTED_EDGE ( 'NONE', *, *, #791, .F. ) ;
#819 = CARTESIAN_POINT ( 'NONE',  ( -13.52788133137971727, -0.3158646431937481847, 37.45577569630388837 ) ) ;
#820 = DIRECTION ( 'NONE',  ( 0.000000000000000000, -1.000000000000000000, 0.000000000000000000 ) ) ;
#821 = EDGE_CURVE ( 'NONE', #745, #459, #38, .T. ) ;
#822 = CIRCLE ( 'NONE', #1040, 5.349999999999996980 ) ;
#823 = EDGE_LOOP ( 'NONE', ( #10, #295 ) ) ;
#824 = FACE_OUTER_BOUND ( 'NONE', #640, .T. ) ;
#825 = ADVANCED_FACE ( 'NONE', ( #138 ), #219, .T. ) ;
#826 = EDGE_LOOP ( 'NONE', ( #466, #992, #520, #564 ) ) ;
#827 = ORIENTED_EDGE ( 'NONE', *, *, #1081, .F. ) ;
#828 = CARTESIAN_POINT ( 'NONE',  ( -24.69945420663353630, 1.284135356806242578, 26.28420282105007999 ) ) ;
#829 = CARTESIAN_POINT ( 'NONE',  ( -24.57788133137971442, 2.284135356806245021, 32.28420282105007999 ) ) ;
#830 = DIRECTION ( 'NONE',  ( 0.000000000000000000, -0.7071067811865480168, -0.7071067811865470176 ) ) ;
#831 = VERTEX_POINT ( 'NONE', #789 ) ;
#832 = VERTEX_POINT ( 'NONE', #49 ) ;
#833 = LINE ( 'NONE', #1043, #490 ) ;
#834 = AXIS2_PLACEMENT_3D ( 'NONE', #892, #1059, #547 ) ;
#835 = MANIFOLD_SOLID_BREP ( 'Chamfer1', #141 ) ;
#836 = CIRCLE ( 'NONE', #197, 4.049999999999994493 ) ;
#837 = DIRECTION ( 'NONE',  ( -4.336808689942008368E-16, 1.000000000000000000, -4.057416247971344741E-16 ) ) ;
#838 = DIRECTION ( 'NONE',  ( -4.336808689942008368E-16, 1.000000000000000000, -4.057416247971344741E-16 ) ) ;
#839 = ORIENTED_EDGE ( 'NONE', *, *, #773, .F. ) ;
#840 = EDGE_CURVE ( 'NONE', #831, #592, #424, .T. ) ;
#841 = LINE ( 'NONE', #1035, #647 ) ;
#842 = LINE ( 'NONE', #304, #332 ) ;
#843 = DIRECTION ( 'NONE',  ( 1.000000000000000000, 4.053092233590673219E-16, 0.000000000000000000 ) ) ;
#844 = EDGE_LOOP ( 'NONE', ( #326, #70, #737, #239, #222, #362, #1053, #948, #1151, #543, #585, #994, #818, #29, #394, #398 ) ) ;
#845 = DIRECTION ( 'NONE',  ( -0.7071067811865464625, -0.7071067811865486830, 0.000000000000000000 ) ) ;
#846 = EDGE_CURVE ( 'NONE', #459, #135, #294, .T. ) ;
#847 = CARTESIAN_POINT ( 'NONE',  ( -20.52788133137972082, 0.6841353568062444879, 36.33420282105007715 ) ) ;
#848 = DIRECTION ( 'NONE',  ( -0.000000000000000000, 1.000000000000000000, -0.000000000000000000 ) ) ;
#849 = ORIENTED_EDGE ( 'NONE', *, *, #344, .T. ) ;
#850 = DIRECTION ( 'NONE',  ( 4.286036293534464861E-16, -1.000000000000000000, 4.060455435980019602E-16 ) ) ;
#851 = PLANE ( 'NONE',  #779 ) ;
#852 = AXIS2_PLACEMENT_3D ( 'NONE', #360, #713, #733 ) ;
#853 = CARTESIAN_POINT ( 'NONE',  ( -16.35630845612590178, -0.3158646431937490173, 38.28420282105007288 ) ) ;
#854 = ADVANCED_FACE ( 'NONE', ( #341 ), #1197, .F. ) ;
#855 = VERTEX_POINT ( 'NONE', #712 ) ;
#856 = AXIS2_PLACEMENT_3D ( 'NONE', #1109, #752, #746 ) ;
#857 = ORIENTED_EDGE ( 'NONE', *, *, #181, .F. ) ;
#858 = AXIS2_PLACEMENT_3D ( 'NONE', #555, #1179, #47 ) ;
#859 = DIRECTION ( 'NONE',  ( 1.040834085586085203E-14, 0.000000000000000000, -1.000000000000000000 ) ) ;
#860 = CONICAL_SURFACE ( 'NONE', #882, 2.000000000000001776, 0.7853981633974471688 ) ;
#861 = DIRECTION ( 'NONE',  ( 4.286036293534464861E-16, -1.000000000000000000, 4.060455435980019602E-16 ) ) ;
#862 = FACE_OUTER_BOUND ( 'NONE', #678, .T. ) ;
#863 = EDGE_CURVE ( 'NONE', #961, #374, #684, .T. ) ;
#864 = EDGE_CURVE ( 'NONE', #412, #242, #1015, .T. ) ;
#865 = ORIENTED_EDGE ( 'NONE', *, *, #785, .T. ) ;
#866 = CARTESIAN_POINT ( 'NONE',  ( -25.40656098782006467, -0.3158646431937526811, 38.99130960223663322 ) ) ;
#867 = DIRECTION ( 'NONE',  ( -4.336808689942007875E-16, 1.000000000000000000, -4.057416247971344741E-16 ) ) ;
#868 = FACE_OUTER_BOUND ( 'NONE', #315, .T. ) ;
#869 = ORIENTED_EDGE ( 'NONE', *, *, #523, .T. ) ;
#870 = ORIENTED_EDGE ( 'NONE', *, *, #632, .F. ) ;
#871 = FACE_OUTER_BOUND ( 'NONE', #338, .T. ) ;
#872 = EDGE_CURVE ( 'NONE', #525, #812, #444, .T. ) ;
#873 = LINE ( 'NONE', #402, #258 ) ;
#874 = FACE_OUTER_BOUND ( 'NONE', #1032, .T. ) ;
#875 = AXIS2_PLACEMENT_3D ( 'NONE', #1084, #976, #244 ) ;
#876 = VECTOR ( 'NONE', #132, 1000.000000000000000 ) ;
#877 = ORIENTED_EDGE ( 'NONE', *, *, #28, .F. ) ;
#878 = PLANE ( 'NONE',  #685 ) ;
#879 = AXIS2_PLACEMENT_3D ( 'NONE', #774, #598, #35 ) ;
#880 = ADVANCED_FACE ( 'NONE', ( #521, #732 ), #272, .F. ) ;
#881 = CARTESIAN_POINT ( 'NONE',  ( -24.69945420663353630, -0.3158646431937575105, 26.28420282105007999 ) ) ;
#882 = AXIS2_PLACEMENT_3D ( 'NONE', #9, #848, #771 ) ;
#883 = DIRECTION ( 'NONE',  ( -4.336808689942008368E-16, 1.000000000000000000, -4.057416247971344741E-16 ) ) ;
#884 = DIRECTION ( 'NONE',  ( 0.7071067811865461294, 5.935613376403758071E-16, 0.7071067811865489050 ) ) ;
#885 = FACE_OUTER_BOUND ( 'NONE', #508, .T. ) ;
#886 = LINE ( 'NONE', #1073, #1036 ) ;
#887 = CARTESIAN_POINT ( 'NONE',  ( -27.52788133137972082, 0.6841353568062455981, 27.11262994579627161 ) ) ;
#888 = CARTESIAN_POINT ( 'NONE',  ( -14.94209489375281841, 0.6841353568062500390, 24.86998925867697707 ) ) ;
#889 = ORIENTED_EDGE ( 'NONE', *, *, #181, .T. ) ;
#890 = EDGE_LOOP ( 'NONE', ( #1021, #340, #179, #768 ) ) ;
#891 = PRESENTATION_STYLE_ASSIGNMENT (( #541 ) ) ;
#892 = CARTESIAN_POINT ( 'NONE',  ( -15.52788133137971727, -0.3158646431937490173, 37.45577569630388837 ) ) ;
#893 = EDGE_CURVE ( 'NONE', #87, #495, #808, .T. ) ;
#894 = VECTOR ( 'NONE', #700, 1000.000000000000000 ) ;
#895 = DIRECTION ( 'NONE',  ( -0.000000000000000000, 1.000000000000000000, -0.000000000000000000 ) ) ;
#896 = ORIENTED_EDGE ( 'NONE', *, *, #1206, .T. ) ;
#897 = VECTOR ( 'NONE', #1050, 999.9999999999998863 ) ;
#898 = ORIENTED_EDGE ( 'NONE', *, *, #34, .F. ) ;
#899 = AXIS2_PLACEMENT_3D ( 'NONE', #964, #793, #419 ) ;
#900 = CARTESIAN_POINT ( 'NONE',  ( -9.840659435024392515E-16, 2.284135356806242800, -9.271590638049394618E-16 ) ) ;
#901 = DIRECTION ( 'NONE',  ( -0.000000000000000000, 1.000000000000000000, -0.000000000000000000 ) ) ;
#902 = VECTOR ( 'NONE', #1008, 1000.000000000000000 ) ;
#903 = APPLICATION_CONTEXT ( 'automotive_design' ) ;
#904 = ADVANCED_FACE ( 'NONE', ( #1187 ), #1061, .T. ) ;
#905 = DIRECTION ( 'NONE',  ( 0.000000000000000000, 0.000000000000000000, 1.000000000000000000 ) ) ;
#906 = ORIENTED_EDGE ( 'NONE', *, *, #754, .F. ) ;
#907 = EDGE_CURVE ( 'NONE', #697, #203, #1097, .T. ) ;
#908 = EDGE_LOOP ( 'NONE', ( #710, #1071, #80, #124 ) ) ;
#909 = DIRECTION ( 'NONE',  ( -4.336808689942008368E-16, 1.000000000000000000, -4.057416247971344741E-16 ) ) ;
#910 = CARTESIAN_POINT ( 'NONE',  ( -25.87788133137971869, 2.284135356806244577, 32.28420282105007999 ) ) ;
#911 = VERTEX_POINT ( 'NONE', #628 ) ;
#912 = EDGE_CURVE ( 'NONE', #374, #911, #164, .T. ) ;
#913 = CARTESIAN_POINT ( 'NONE',  ( -26.11366776900663211, 1.284135356806241246, 24.86998925867699128 ) ) ;
#914 = DIRECTION ( 'NONE',  ( 4.286036293534464861E-16, -1.000000000000000000, 4.060455435980019602E-16 ) ) ;
#915 = AXIS2_PLACEMENT_3D ( 'NONE', #600, #612, #425 ) ;
#916 = CIRCLE ( 'NONE', #335, 4.049999999999994493 ) ;
#917 = ORIENTED_EDGE ( 'NONE', *, *, #51, .F. ) ;
#918 = DIRECTION ( 'NONE',  ( -1.000000000000000000, -4.336808689942004424E-16, 8.316879641572900519E-16 ) ) ;
#919 = VECTOR ( 'NONE', #813, 1000.000000000000000 ) ;
#920 = EDGE_CURVE ( 'NONE', #953, #1062, #71, .T. ) ;
#921 = CARTESIAN_POINT ( 'NONE',  ( -16.47788133137972721, 0.6841353568062444879, 32.28420282105007999 ) ) ;
#922 = VECTOR ( 'NONE', #291, 1000.000000000000000 ) ;
#923 = VERTEX_POINT ( 'NONE', #351 ) ;
#924 = CARTESIAN_POINT ( 'NONE',  ( -16.35630845612591600, 0.6841353568062505941, 24.28420282105007644 ) ) ;
#925 = CARTESIAN_POINT ( 'NONE',  ( -25.52788133137972082, 1.284135356806242578, 27.11262994579626806 ) ) ;
#926 = CARTESIAN_POINT ( 'NONE',  ( -13.52788133137971727, 0.6841353568062544799, 37.45577569630388837 ) ) ;
#927 = ORIENTED_EDGE ( 'NONE', *, *, #516, .F. ) ;
#928 = ORIENTED_EDGE ( 'NONE', *, *, #415, .F. ) ;
#929 = DIRECTION ( 'NONE',  ( 0.000000000000000000, 1.000000000000000000, 0.000000000000000000 ) ) ;
#930 = DIRECTION ( 'NONE',  ( 0.000000000000000000, -1.000000000000000000, 0.000000000000000000 ) ) ;
#931 = CARTESIAN_POINT ( 'NONE',  ( -16.35630845612591600, 1.284135356806245465, 24.28420282105007644 ) ) ;
#932 = EDGE_LOOP ( 'NONE', ( #1108, #1048, #431, #1014 ) ) ;
#933 = ADVANCED_FACE ( 'NONE', ( #76 ), #548, .T. ) ;
#934 = AXIS2_PLACEMENT_3D ( 'NONE', #749, #1130, #1046 ) ;
#935 = VERTEX_POINT ( 'NONE', #1123 ) ;
#936 = DIRECTION ( 'NONE',  ( -4.336808689942008368E-16, 1.000000000000000000, -4.057416247971344741E-16 ) ) ;
#937 = CIRCLE ( 'NONE', #1000, 1.999999999999998224 ) ;
#938 = AXIS2_PLACEMENT_3D ( 'NONE', #114, #484, #1153 ) ;
#939 = CARTESIAN_POINT ( 'NONE',  ( -14.11366776900661613, -0.3158646431937479626, 38.86998925867697352 ) ) ;
#940 = CONICAL_SURFACE ( 'NONE', #591, 1.000000000000000888, 0.7853981633974459475 ) ;
#941 = DIRECTION ( 'NONE',  ( -4.336808689942008368E-16, 1.000000000000000000, -4.057416247971344741E-16 ) ) ;
#942 = EDGE_CURVE ( 'NONE', #622, #495, #218, .T. ) ;
#943 = EDGE_LOOP ( 'NONE', ( #233, #633, #278, #343 ) ) ;
#944 = LINE ( 'NONE', #1208, #743 ) ;
#945 = DIRECTION ( 'NONE',  ( 1.000000000000000000, 4.336808689942021680E-16, 0.000000000000000000 ) ) ;
#946 = LINE ( 'NONE', #960, #701 ) ;
#947 = ORIENTED_EDGE ( 'NONE', *, *, #632, .T. ) ;
#948 = ORIENTED_EDGE ( 'NONE', *, *, #1004, .F. ) ;
#949 = DIRECTION ( 'NONE',  ( -0.000000000000000000, 1.000000000000000000, -0.000000000000000000 ) ) ;
#950 = EDGE_CURVE ( 'NONE', #1132, #412, #376, .T. ) ;
#951 = DIRECTION ( 'NONE',  ( 1.000000000000000000, 4.053092233590673219E-16, 0.000000000000000000 ) ) ;
#952 = LINE ( 'NONE', #388, #314 ) ;
#953 = VERTEX_POINT ( 'NONE', #200 ) ;
#954 = ORIENTED_EDGE ( 'NONE', *, *, #227, .F. ) ;
#955 = CARTESIAN_POINT ( 'NONE',  ( -16.35630845612590178, 1.284135356806251904, 40.28420282105007288 ) ) ;
#956 = CARTESIAN_POINT ( 'NONE',  ( -16.47788133137972721, 2.284135356806248573, 32.28420282105007999 ) ) ;
#957 = AXIS2_PLACEMENT_3D ( 'NONE', #814, #914, #72 ) ;
#958 = EDGE_CURVE ( 'NONE', #812, #533, #395, .T. ) ;
#959 = VECTOR ( 'NONE', #918, 1000.000000000000000 ) ;
#960 = CARTESIAN_POINT ( 'NONE',  ( -14.94209489375280420, 0.6841353568062545909, 39.69841638342316514 ) ) ;
#961 = VERTEX_POINT ( 'NONE', #88 ) ;
#962 = VECTOR ( 'NONE', #255, 1000.000000000000000 ) ;
#963 = ORIENTED_EDGE ( 'NONE', *, *, #718, .T. ) ;
#964 = CARTESIAN_POINT ( 'NONE',  ( -20.52788133137972082, 0.6841353568062444879, 32.28420282105007999 ) ) ;
#965 = CARTESIAN_POINT ( 'NONE',  ( -15.17788133137972295, 2.284135356806249018, 32.28420282105007999 ) ) ;
#966 = DIRECTION ( 'NONE',  ( 8.947508826235285508E-16, -0.7071067811865463515, 0.7071067811865487940 ) ) ;
#967 = ORIENTED_EDGE ( 'NONE', *, *, #920, .T. ) ;
#968 = ADVANCED_FACE ( 'NONE', ( #1022 ), #1078, .T. ) ;
#969 = ORIENTED_EDGE ( 'NONE', *, *, #1041, .F. ) ;
#970 = FACE_OUTER_BOUND ( 'NONE', #943, .T. ) ;
#971 = DIRECTION ( 'NONE',  ( -1.000000000000000000, -4.336808689942017736E-16, 0.000000000000000000 ) ) ;
#972 = FACE_OUTER_BOUND ( 'NONE', #282, .T. ) ;
#973 = EDGE_CURVE ( 'NONE', #648, #641, #279, .T. ) ;
#974 = ORIENTED_EDGE ( 'NONE', *, *, #51, .T. ) ;
#975 = CYLINDRICAL_SURFACE ( 'NONE', #277, 1.999999999999998224 ) ;
#976 = DIRECTION ( 'NONE',  ( 0.4999999999999981126, 0.7071067811865472397, 0.5000000000000024425 ) ) ;
#977 = AXIS2_PLACEMENT_3D ( 'NONE', #1145, #671, #206 ) ;
#978 = CARTESIAN_POINT ( 'NONE',  ( -14.52788133137971904, -0.3158646431937485732, 37.45577569630388837 ) ) ;
#979 = ORIENTED_EDGE ( 'NONE', *, *, #920, .F. ) ;
#980 = STYLED_ITEM ( 'NONE', ( #891 ), #835 ) ;
#981 = EDGE_LOOP ( 'NONE', ( #870, #1190, #540, #686 ) ) ;
#982 = LINE ( 'NONE', #687, #198 ) ;
#983 = AXIS2_PLACEMENT_3D ( 'NONE', #1079, #246, #162 ) ;
#984 = CYLINDRICAL_SURFACE ( 'NONE', #489, 1.999999999999998224 ) ;
#985 = AXIS2_PLACEMENT_3D ( 'NONE', #755, #397, #588 ) ;
#986 = LINE ( 'NONE', #777, #37 ) ;
#987 = LINE ( 'NONE', #147, #241 ) ;
#988 = VERTEX_POINT ( 'NONE', #757 ) ;
#989 = CARTESIAN_POINT ( 'NONE',  ( -27.52788133137972082, 1.284135356806241690, 27.11262994579627161 ) ) ;
#990 = EDGE_CURVE ( 'NONE', #627, #1134, #1135, .T. ) ;
#991 = LINE ( 'NONE', #434, #1013 ) ;
#992 = ORIENTED_EDGE ( 'NONE', *, *, #339, .F. ) ;
#993 = DIRECTION ( 'NONE',  ( -1.000000000000000000, -4.336808689942006396E-16, 4.158439820786448781E-16 ) ) ;
#994 = ORIENTED_EDGE ( 'NONE', *, *, #811, .F. ) ;
#995 = DIRECTION ( 'NONE',  ( 0.000000000000000000, 0.000000000000000000, -1.000000000000000000 ) ) ;
#996 = CARTESIAN_POINT ( 'NONE',  ( -16.35630845612590178, 1.284135356806251016, 38.28420282105007288 ) ) ;
#997 = ADVANCED_FACE ( 'NONE', ( #478 ), #284, .T. ) ;
#998 = EDGE_CURVE ( 'NONE', #953, #745, #944, .T. ) ;
#999 = CIRCLE ( 'NONE', #759, 4.049999999999994493 ) ;
#1000 = AXIS2_PLACEMENT_3D ( 'NONE', #236, #794, #1056 ) ;
#1001 = PLANE ( 'NONE',  #358 ) ;
#1002 = ORIENTED_EDGE ( 'NONE', *, *, #958, .T. ) ;
#1003 = CARTESIAN_POINT ( 'NONE',  ( -27.52788133137972082, 0.6841353568062460422, 27.11262994579627161 ) ) ;
#1004 = EDGE_CURVE ( 'NONE', #697, #249, #572, .T. ) ;
#1005 = ORIENTED_EDGE ( 'NONE', *, *, #375, .T. ) ;
#1006 = DIRECTION ( 'NONE',  ( 0.000000000000000000, 1.000000000000000000, 0.000000000000000000 ) ) ;
#1007 = CARTESIAN_POINT ( 'NONE',  ( -26.52788133137971371, -0.3158646431937537913, 37.45577569630388837 ) ) ;
#1008 = DIRECTION ( 'NONE',  ( 8.659560562354926695E-17, -0.7071067811865480168, 0.7071067811865470176 ) ) ;
#1009 = ADVANCED_FACE ( 'NONE', ( #656 ), #576, .T. ) ;
#1010 = ORIENTED_EDGE ( 'NONE', *, *, #354, .F. ) ;
#1011 = CARTESIAN_POINT ( 'NONE',  ( -24.69945420663353985, -0.3158646431937578991, 25.28420282105007999 ) ) ;
#1012 = ORIENTED_EDGE ( 'NONE', *, *, #90, .T. ) ;
#1013 = VECTOR ( 'NONE', #1085, 1000.000000000000000 ) ;
#1014 = ORIENTED_EDGE ( 'NONE', *, *, #791, .T. ) ;
#1015 = LINE ( 'NONE', #157, #959 ) ;
#1016 = VECTOR ( 'NONE', #651, 1000.000000000000114 ) ;
#1017 = ADVANCED_FACE ( 'NONE', ( #1143 ), #661, .F. ) ;
#1018 = CARTESIAN_POINT ( 'NONE',  ( -20.52788133137972082, 0.6841353568062444879, 32.28420282105007999 ) ) ;
#1019 = ORIENTED_EDGE ( 'NONE', *, *, #319, .T. ) ;
#1020 = ORIENTED_EDGE ( 'NONE', *, *, #616, .F. ) ;
#1021 = ORIENTED_EDGE ( 'NONE', *, *, #166, .F. ) ;
#1022 = FACE_OUTER_BOUND ( 'NONE', #1060, .T. ) ;
#1023 = CARTESIAN_POINT ( 'NONE',  ( -26.11366776900661435, -0.3158646431937527366, 39.69841638342317225 ) ) ;
#1024 = ADVANCED_FACE ( 'NONE', ( #467 ), #102, .T. ) ;
#1025 = CYLINDRICAL_SURFACE ( 'NONE', #292, 4.049999999999994493 ) ;
#1026 = ORIENTED_EDGE ( 'NONE', *, *, #472, .T. ) ;
#1027 = VERTEX_POINT ( 'NONE', #924 ) ;
#1028 = DIRECTION ( 'NONE',  ( -0.7071067811865444641, -5.935613376403757085E-16, -0.7071067811865505703 ) ) ;
#1029 = DIRECTION ( 'NONE',  ( -4.336808689942008368E-16, 1.000000000000000000, -4.057416247971344741E-16 ) ) ;
#1030 = EDGE_CURVE ( 'NONE', #257, #501, #841, .T. ) ;
#1031 = CYLINDRICAL_SURFACE ( 'NONE', #1211, 2.000000000000001776 ) ;
#1032 = EDGE_LOOP ( 'NONE', ( #497, #798, #602, #1076 ) ) ;
#1033 = AXIS2_PLACEMENT_3D ( 'NONE', #353, #901, #89 ) ;
#1034 = ORIENTED_EDGE ( 'NONE', *, *, #773, .T. ) ;
#1035 = CARTESIAN_POINT ( 'NONE',  ( -26.11366776900661435, -0.3158646431937527366, 39.69841638342317225 ) ) ;
#1036 = VECTOR ( 'NONE', #604, 1000.000000000000114 ) ;
#1037 = DIRECTION ( 'NONE',  ( 6.708688121857588459E-16, 0.000000000000000000, 1.000000000000000000 ) ) ;
#1038 = PLANE ( 'NONE',  #23 ) ;
#1039 = AXIS2_PLACEMENT_3D ( 'NONE', #1201, #349, #61 ) ;
#1040 = AXIS2_PLACEMENT_3D ( 'NONE', #676, #583, #843 ) ;
#1041 = EDGE_CURVE ( 'NONE', #761, #641, #781, .T. ) ;
#1042 = ORIENTED_EDGE ( 'NONE', *, *, #998, .F. ) ;
#1043 = CARTESIAN_POINT ( 'NONE',  ( -27.23498811256621721, -0.3158646431937581212, 27.40552316460966153 ) ) ;
#1044 = CARTESIAN_POINT ( 'NONE',  ( -24.69945420663353985, -0.3158646431937583432, 24.28420282105007999 ) ) ;
#1045 = PRODUCT ( '\X2\04200430043c043a0430\X0\_\X2\0421043204350442043e04340438043e04340430\X0\', '\X2\04200430043c043a0430\X0\_\X2\0421043204350442043e04340438043e04340430\X0\', '', ( #73 ) ) ;
#1046 = DIRECTION ( 'NONE',  ( 1.000000000000000000, 4.336808689942013792E-16, 0.000000000000000000 ) ) ;
#1047 = ORIENTED_EDGE ( 'NONE', *, *, #1089, .T. ) ;
#1048 = ORIENTED_EDGE ( 'NONE', *, *, #130, .T. ) ;
#1049 = EDGE_CURVE ( 'NONE', #608, #648, #833, .T. ) ;
#1050 = DIRECTION ( 'NONE',  ( 0.000000000000000000, 0.7071067811865487940, 0.7071067811865463515 ) ) ;
#1051 = DIRECTION ( 'NONE',  ( -4.336808689942008368E-16, 1.000000000000000000, -4.057416247971344741E-16 ) ) ;
#1052 = CARTESIAN_POINT ( 'NONE',  ( -16.35630845612590178, 0.6841353568062544799, 38.28420282105007288 ) ) ;
#1053 = ORIENTED_EDGE ( 'NONE', *, *, #443, .T. ) ;
#1054 = EDGE_LOOP ( 'NONE', ( #979, #551, #350, #827 ) ) ;
#1055 = FACE_OUTER_BOUND ( 'NONE', #1054, .T. ) ;
#1056 = DIRECTION ( 'NONE',  ( 1.000000000000000000, 4.336808689942021680E-16, 0.000000000000000000 ) ) ;
#1057 = CIRCLE ( 'NONE', #683, 0.9999999999999974465 ) ;
#1058 = CIRCLE ( 'NONE', #19, 5.049999999999990052 ) ;
#1059 = DIRECTION ( 'NONE',  ( -4.336808689942008368E-16, 1.000000000000000000, -4.057416247971344741E-16 ) ) ;
#1060 = EDGE_LOOP ( 'NONE', ( #477, #15, #254, #1083 ) ) ;
#1061 = CONICAL_SURFACE ( 'NONE', #355, 0.9999999999999974465, 0.7853981633974468357 ) ;
#1062 = VERTEX_POINT ( 'NONE', #581 ) ;
#1063 = DIRECTION ( 'NONE',  ( 1.000000000000000000, 4.336808689942004424E-16, -8.316879641572900519E-16 ) ) ;
#1064 = LINE ( 'NONE', #989, #100 ) ;
#1065 = CARTESIAN_POINT ( 'NONE',  ( -13.52788133137972437, 1.284135356806247685, 27.11262994579626096 ) ) ;
#1066 = EDGE_CURVE ( 'NONE', #501, #535, #120, .T. ) ;
#1067 = VERTEX_POINT ( 'NONE', #783 ) ;
#1068 = DIRECTION ( 'NONE',  ( -0.7071067811865444641, 0.000000000000000000, -0.7071067811865505703 ) ) ;
#1069 = DIRECTION ( 'NONE',  ( -0.4999999999999950040, 0.7071067811865492381, 0.5000000000000024425 ) ) ;
#1070 = CARTESIAN_POINT ( 'NONE',  ( -15.52788133137972437, -0.3158646431937531807, 27.11262994579626451 ) ) ;
#1071 = ORIENTED_EDGE ( 'NONE', *, *, #69, .T. ) ;
#1072 = CARTESIAN_POINT ( 'NONE',  ( -24.69945420663352209, -0.3158646431937522370, 39.28420282105007999 ) ) ;
#1073 = CARTESIAN_POINT ( 'NONE',  ( -26.11366776900661435, 1.284135356806247463, 39.69841638342317225 ) ) ;
#1074 = CIRCLE ( 'NONE', #98, 1.000000000000000888 ) ;
#1075 = CARTESIAN_POINT ( 'NONE',  ( -26.94209489375280242, 0.6841353568062505941, 38.86998925867698063 ) ) ;
#1076 = ORIENTED_EDGE ( 'NONE', *, *, #1163, .F. ) ;
#1077 = CIRCLE ( 'NONE', #1136, 0.9999999999999991118 ) ;
#1078 = CONICAL_SURFACE ( 'NONE', #161, 2.000000000000001776, 0.7853981633974469467 ) ;
#1079 = CARTESIAN_POINT ( 'NONE',  ( -26.11366776900663211, -0.3158646431937587873, 24.86998925867699128 ) ) ;
#1080 = CIRCLE ( 'NONE', #688, 0.9999999999999974465 ) ;
#1081 = EDGE_CURVE ( 'NONE', #1062, #459, #136, .T. ) ;
#1082 = AXIS2_PLACEMENT_3D ( 'NONE', #184, #348, #905 ) ;
#1083 = ORIENTED_EDGE ( 'NONE', *, *, #863, .F. ) ;
#1084 = CARTESIAN_POINT ( 'NONE',  ( -26.11366776900663211, 0.6841353568062453760, 24.86998925867699128 ) ) ;
#1085 = DIRECTION ( 'NONE',  ( -6.708688121857586487E-16, -4.057416247971347699E-16, -1.000000000000000000 ) ) ;
#1086 = VERTEX_POINT ( 'NONE', #866 ) ;
#1087 = DIRECTION ( 'NONE',  ( 0.000000000000000000, 0.000000000000000000, -1.000000000000000000 ) ) ;
#1088 = ORIENTED_EDGE ( 'NONE', *, *, #375, .F. ) ;
#1089 = EDGE_CURVE ( 'NONE', #745, #1027, #1177, .T. ) ;
#1090 = EDGE_LOOP ( 'NONE', ( #660, #92, #283, #801, #409, #1102, #1127, #963, #215, #330, #1180, #1005, #1096, #101, #1152, #63 ) ) ;
#1091 = DIRECTION ( 'NONE',  ( -0.000000000000000000, 1.000000000000000000, -0.000000000000000000 ) ) ;
#1092 = EDGE_CURVE ( 'NONE', #641, #697, #118, .T. ) ;
#1093 = LINE ( 'NONE', #252, #663 ) ;
#1094 = DIRECTION ( 'NONE',  ( 6.708688121857586487E-16, 4.057416247971347699E-16, 1.000000000000000000 ) ) ;
#1095 = CARTESIAN_POINT ( 'NONE',  ( -20.52788133137972082, 0.6841353568062444879, 36.33420282105007715 ) ) ;
#1096 = ORIENTED_EDGE ( 'NONE', *, *, #196, .T. ) ;
#1097 = LINE ( 'NONE', #913, #962 ) ;
#1098 = DIRECTION ( 'NONE',  ( 1.000000000000000000, 4.336808689942009847E-16, 0.000000000000000000 ) ) ;
#1099 = EDGE_CURVE ( 'NONE', #321, #1200, #982, .T. ) ;
#1100 = PRESENTATION_LAYER_ASSIGNMENT (  '', '', ( #980 ) ) ;
#1101 = AXIS2_PLACEMENT_3D ( 'NONE', #180, #936, #6 ) ;
#1102 = ORIENTED_EDGE ( 'NONE', *, *, #34, .T. ) ;
#1103 = ORIENTED_EDGE ( 'NONE', *, *, #893, .T. ) ;
#1104 = CARTESIAN_POINT ( 'NONE',  ( -24.57788133137971442, -0.3158646431937551236, 32.28420282105007999 ) ) ;
#1105 = DIRECTION ( 'NONE',  ( 0.7071067811865439090, 1.975602903296936145E-17, -0.7071067811865512365 ) ) ;
#1106 = ADVANCED_FACE ( 'NONE', ( #331 ), #975, .T. ) ;
#1107 = EDGE_LOOP ( 'NONE', ( #131, #896, #927, #917, #877 ) ) ;
#1108 = ORIENTED_EDGE ( 'NONE', *, *, #1099, .F. ) ;
#1109 = CARTESIAN_POINT ( 'NONE',  ( -16.35630845612590178, -0.3158646431937490173, 38.28420282105007288 ) ) ;
#1110 = CARTESIAN_POINT ( 'NONE',  ( -16.35630845612591600, -0.3158646431937546795, 24.28420282105007644 ) ) ;
#1111 = ORIENTED_EDGE ( 'NONE', *, *, #516, .T. ) ;
#1112 = DIRECTION ( 'NONE',  ( -4.336808689942008368E-16, 1.000000000000000000, -4.057416247971344741E-16 ) ) ;
#1113 = DIRECTION ( 'NONE',  ( -1.000000000000000000, -4.418342309585601213E-16, 4.158439820786448288E-16 ) ) ;
#1114 = DIRECTION ( 'NONE',  ( -0.7071067811865505703, -1.975602903297492969E-17, 0.7071067811865444641 ) ) ;
#1115 = CIRCLE ( 'NONE', #852, 5.049999999999990052 ) ;
#1116 = ORIENTED_EDGE ( 'NONE', *, *, #1191, .F. ) ;
#1117 = EDGE_CURVE ( 'NONE', #1062, #1203, #1195, .T. ) ;
#1118 = DIRECTION ( 'NONE',  ( -0.7071067811865464625, 0.7071067811865486830, 2.453269466693393099E-15 ) ) ;
#1119 = AXIS2_PLACEMENT_3D ( 'NONE', #216, #788, #1068 ) ;
#1120 = FACE_OUTER_BOUND ( 'NONE', #112, .T. ) ;
#1121 = ORIENTED_EDGE ( 'NONE', *, *, #354, .T. ) ;
#1122 = EDGE_LOOP ( 'NONE', ( #363, #429, #107, #731 ) ) ;
#1123 = CARTESIAN_POINT ( 'NONE',  ( -25.87788133137971869, 2.284135356806244577, 32.28420282105007999 ) ) ;
#1124 = ADVANCED_FACE ( 'NONE', ( #679 ), #940, .T. ) ;
#1125 = CYLINDRICAL_SURFACE ( 'NONE', #546, 5.349999999999996980 ) ;
#1126 = FACE_BOUND ( 'NONE', #716, .T. ) ;
#1127 = ORIENTED_EDGE ( 'NONE', *, *, #610, .T. ) ;
#1128 = DIRECTION ( 'NONE',  ( 0.000000000000000000, 0.000000000000000000, 1.000000000000000000 ) ) ;
#1129 = PLANE ( 'NONE',  #16 ) ;
#1130 = DIRECTION ( 'NONE',  ( 4.336808689942007875E-16, -1.000000000000000000, 4.057416247971344741E-16 ) ) ;
#1131 = ADVANCED_FACE ( 'NONE', ( #1055 ), #413, .T. ) ;
#1132 = VERTEX_POINT ( 'NONE', #504 ) ;
#1133 = CONICAL_SURFACE ( 'NONE', #567, 2.000000000000001776, 0.7853981633974473908 ) ;
#1134 = VERTEX_POINT ( 'NONE', #593 ) ;
#1135 = LINE ( 'NONE', #763, #393 ) ;
#1136 = AXIS2_PLACEMENT_3D ( 'NONE', #205, #577, #670 ) ;
#1137 = AXIS2_PLACEMENT_3D ( 'NONE', #381, #850, #474 ) ;
#1138 = CARTESIAN_POINT ( 'NONE',  ( -16.35630845612591600, -0.3158646431937542909, 25.28420282105007644 ) ) ;
#1139 = FACE_OUTER_BOUND ( 'NONE', #1107, .T. ) ;
#1140 = ADVANCED_FACE ( 'NONE', ( #603 ), #878, .F. ) ;
#1141 = VECTOR ( 'NONE', #993, 1000.000000000000000 ) ;
#1142 = ORIENTED_EDGE ( 'NONE', *, *, #232, .T. ) ;
#1143 = FACE_OUTER_BOUND ( 'NONE', #890, .T. ) ;
#1144 = DIRECTION ( 'NONE',  ( 1.000000000000000000, 4.283267841918047918E-16, 0.000000000000000000 ) ) ;
#1145 = CARTESIAN_POINT ( 'NONE',  ( -20.52788133137972082, 0.6841353568062444879, 32.28420282105007999 ) ) ;
#1146 = ORIENTED_EDGE ( 'NONE', *, *, #196, .F. ) ;
#1147 = DIRECTION ( 'NONE',  ( -0.000000000000000000, 1.000000000000000000, -0.000000000000000000 ) ) ;
#1148 = ADVANCED_FACE ( 'NONE', ( #885 ), #414, .F. ) ;
#1149 = CARTESIAN_POINT ( 'NONE',  ( -26.52788133137971727, -0.3158646431937579546, 27.11262994579626806 ) ) ;
#1150 = CARTESIAN_POINT ( 'NONE',  ( -15.64920167493936631, -0.3158646431937538468, 25.57709603986352676 ) ) ;
#1151 = ORIENTED_EDGE ( 'NONE', *, *, #907, .T. ) ;
#1152 = ORIENTED_EDGE ( 'NONE', *, *, #539, .T. ) ;
#1153 = DIRECTION ( 'NONE',  ( -1.000000000000000000, -4.336808689942013792E-16, 0.000000000000000000 ) ) ;
#1154 = CIRCLE ( 'NONE', #589, 0.9999999999999974465 ) ;
#1155 = EDGE_CURVE ( 'NONE', #242, #810, #327, .T. ) ;
#1156 = CARTESIAN_POINT ( 'NONE',  ( -26.23498811256626340, -0.3158646431937533472, 38.16288247749043450 ) ) ;
#1157 = CONICAL_SURFACE ( 'NONE', #1033, 1.999999999999998224, 0.7853981633974463916 ) ;
#1158 = LINE ( 'NONE', #245, #274 ) ;
#1159 = VECTOR ( 'NONE', #909, 1000.000000000000000 ) ;
#1160 = ORIENTED_EDGE ( 'NONE', *, *, #310, .T. ) ;
#1161 = DIRECTION ( 'NONE',  ( -0.7071067811865444641, -5.552546642481583137E-16, -0.7071067811865505703 ) ) ;
#1162 = CARTESIAN_POINT ( 'NONE',  ( -20.52788133137972082, -0.3158646431937510712, 37.33420282105007004 ) ) ;
#1163 = EDGE_CURVE ( 'NONE', #810, #1132, #609, .T. ) ;
#1164 = CARTESIAN_POINT ( 'NONE',  ( -16.35630845612590178, 1.284135356806251016, 38.28420282105007288 ) ) ;
#1165 = ORIENTED_EDGE ( 'NONE', *, *, #426, .F. ) ;
#1166 = DIRECTION ( 'NONE',  ( -8.316879641572898547E-16, -4.057416247971348685E-16, -1.000000000000000000 ) ) ;
#1167 = CARTESIAN_POINT ( 'NONE',  ( -27.52788133137971371, 0.6841353568062503721, 37.45577569630388837 ) ) ;
#1168 = DIRECTION ( 'NONE',  ( -0.5000000000000009992, -0.7071067811865486830, -0.4999999999999972800 ) ) ;
#1169 = ADVANCED_FACE ( 'NONE', ( #871 ), #498, .T. ) ;
#1170 = EDGE_LOOP ( 'NONE', ( #571, #460, #366, #1146 ) ) ;
#1171 = CYLINDRICAL_SURFACE ( 'NONE', #82, 2.000000000000001776 ) ;
#1172 = VERTEX_POINT ( 'NONE', #423 ) ;
#1173 = DIRECTION ( 'NONE',  ( 1.000000000000000000, 4.458401456949740689E-16, 0.000000000000000000 ) ) ;
#1174 = VECTOR ( 'NONE', #883, 1000.000000000000000 ) ;
#1175 = DIRECTION ( 'NONE',  ( -1.000000000000000000, -4.418342309585602692E-16, 8.316879641572899533E-16 ) ) ;
#1176 = VECTOR ( 'NONE', #837, 1000.000000000000000 ) ;
#1177 = CIRCLE ( 'NONE', #800, 1.999999999999998224 ) ;
#1178 = ADVANCED_FACE ( 'NONE', ( #970 ), #1171, .T. ) ;
#1179 = DIRECTION ( 'NONE',  ( 0.000000000000000000, -1.000000000000000000, 0.000000000000000000 ) ) ;
#1180 = ORIENTED_EDGE ( 'NONE', *, *, #1191, .T. ) ;
#1181 = VERTEX_POINT ( 'NONE', #955 ) ;
#1182 = SURFACE_SIDE_STYLE ('',( #802 ) ) ;
#1183 = DIRECTION ( 'NONE',  ( 0.000000000000000000, 0.000000000000000000, 1.000000000000000000 ) ) ;
#1184 = ORIENTED_EDGE ( 'NONE', *, *, #502, .T. ) ;
#1185 = ORIENTED_EDGE ( 'NONE', *, *, #973, .T. ) ;
#1186 = EDGE_CURVE ( 'NONE', #832, #412, #41, .T. ) ;
#1187 = FACE_OUTER_BOUND ( 'NONE', #826, .T. ) ;
#1188 = DIRECTION ( 'NONE',  ( 4.336808689942007875E-16, -1.000000000000000000, 4.057416247971344741E-16 ) ) ;
#1189 = DIRECTION ( 'NONE',  ( -4.336808689942008368E-16, 1.000000000000000000, -4.057416247971344741E-16 ) ) ;
#1190 = ORIENTED_EDGE ( 'NONE', *, *, #1041, .T. ) ;
#1191 = EDGE_CURVE ( 'NONE', #242, #1086, #1080, .T. ) ;
#1192 = DIRECTION ( 'NONE',  ( -0.7071067811865439090, -1.850848880827196680E-16, 0.7071067811865512365 ) ) ;
#1193 = CIRCLE ( 'NONE', #915, 1.999999999999998224 ) ;
#1194 = AXIS2_PLACEMENT_3D ( 'NONE', #225, #323, #971 ) ;
#1195 = CIRCLE ( 'NONE', #433, 1.999999999999998224 ) ;
#1196 = EDGE_LOOP ( 'NONE', ( #673, #271, #667, #1042 ) ) ;
#1197 = PLANE ( 'NONE',  #139 ) ;
#1198 = CARTESIAN_POINT ( 'NONE',  ( -25.52788133137972082, -0.3158646431937575660, 27.11262994579626806 ) ) ;
#1199 = VECTOR ( 'NONE', #838, 1000.000000000000000 ) ;
#1200 = VERTEX_POINT ( 'NONE', #519 ) ;
#1201 = CARTESIAN_POINT ( 'NONE',  ( 0.000000000000000000, 0.000000000000000000, 0.000000000000000000 ) ) ;
#1202 = ORIENTED_EDGE ( 'NONE', *, *, #1117, .T. ) ;
#1203 = VERTEX_POINT ( 'NONE', #356 ) ;
#1204 = LINE ( 'NONE', #624, #507 ) ;
#1205 = ORIENTED_EDGE ( 'NONE', *, *, #1186, .F. ) ;
#1206 = EDGE_CURVE ( 'NONE', #655, #722, #428, .T. ) ;
#1207 = ORIENTED_EDGE ( 'NONE', *, *, #166, .T. ) ;
#1208 = CARTESIAN_POINT ( 'NONE',  ( -14.11366776900663211, 0.6841353568062508161, 25.69841638342316870 ) ) ;
#1209 = DIRECTION ( 'NONE',  ( 0.000000000000000000, -1.000000000000000000, 0.000000000000000000 ) ) ;
#1210 = DIRECTION ( 'NONE',  ( -0.7071067811865444641, -5.935613376403757085E-16, -0.7071067811865505703 ) ) ;
#1211 = AXIS2_PLACEMENT_3D ( 'NONE', #202, #122, #194 ) ;
#1212 = EDGE_CURVE ( 'NONE', #257, #810, #62, .T. ) ;
#1213 = COLOUR_RGB ( '',0.7921568627450980005, 0.8196078431372548767, 0.9333333333333333481 ) ;
#1214 = ORIENTED_EDGE ( 'NONE', *, *, #465, .T. ) ;
#1215 = CARTESIAN_POINT ( 'NONE',  ( -15.52788133137971727, 0.6841353568062549240, 37.45577569630388837 ) ) ;
ENDSEC;
END-ISO-10303-21;
